<?xml version="1.0" encoding="UTF-8"?>
<!DOCTYPE svg PUBLIC "-//W3C//DTD SVG 1.1//EN" "http://www.w3.org/Graphics/SVG/1.1/DTD/svg11.dtd">
<svg xmlns="http://www.w3.org/2000/svg" version="1.1" width="200px" height="250px" style="shape-rendering:geometricPrecision; text-rendering:geometricPrecision; image-rendering:optimizeQuality; fill-rule:evenodd; clip-rule:evenodd" xmlns:xlink="http://www.w3.org/1999/xlink">
<g><path style="opacity:0.349" fill="#727272" d="M 87.5,0.5 C 87.5,0.166667 87.5,-0.166667 87.5,-0.5C 92.5,-0.5 97.5,-0.5 102.5,-0.5C 107.932,0.312967 112.932,2.31297 117.5,5.5C 114.167,4.5 110.833,3.5 107.5,2.5C 102.24,1.36786 96.9065,0.701197 91.5,0.5C 90.1667,0.5 88.8333,0.5 87.5,0.5 Z"/></g>
<g><path style="opacity:0.663" fill="#3f453f" d="M 107.5,2.5 C 110.833,3.5 114.167,4.5 117.5,5.5C 122.103,6.33382 126.769,7.33382 131.5,8.5C 134.254,9.64142 136.921,10.9748 139.5,12.5C 133.518,10.947 127.518,9.61368 121.5,8.5C 121.44,7.95691 121.107,7.62358 120.5,7.5C 119.818,8.24269 119.151,8.90935 118.5,9.5C 114.628,7.40257 110.961,5.06924 107.5,2.5 Z"/></g>
<g><path style="opacity:0.231" fill="#9e9d95" d="M 148.5,19.5 C 148.167,19.5 147.833,19.5 147.5,19.5C 145.779,16.1136 143.112,13.7803 139.5,12.5C 136.921,10.9748 134.254,9.64142 131.5,8.5C 131.369,7.62356 131.702,6.95689 132.5,6.5C 136.167,8.33333 139.833,10.1667 143.5,12C 145.415,14.3996 147.081,16.8996 148.5,19.5 Z"/></g>
<g><path style="opacity:1" fill="#985156" d="M 91.5,0.5 C 96.9065,0.701197 102.24,1.36786 107.5,2.5C 110.961,5.06924 114.628,7.40257 118.5,9.5C 118.5,10.1667 118.5,10.8333 118.5,11.5C 120.622,18.3255 121.622,25.3255 121.5,32.5C 120.25,32.4226 119.417,31.756 119,30.5C 118.667,27.5 118.333,24.5 118,21.5C 117.439,20.9781 116.772,20.6448 116,20.5C 113.861,22.4786 111.694,23.6453 109.5,24C 110.138,25.7067 110.138,27.54 109.5,29.5C 111.39,29.7035 112.89,29.0368 114,27.5C 114.684,28.7839 114.517,29.9505 113.5,31C 109.973,30.9012 106.306,31.4012 102.5,32.5C 102.156,35.0361 101.156,37.2028 99.5,39C 102.167,39.6667 104.833,40.3333 107.5,41C 106.167,41.3333 104.833,41.6667 103.5,42C 105.058,42.21 106.391,42.71 107.5,43.5C 104.15,43.3865 100.817,43.0531 97.5,42.5C 90.9456,44.1327 84.2789,44.7994 77.5,44.5C 77.9175,43.7784 78.5842,43.2784 79.5,43C 83.8206,42.501 88.1539,42.3343 92.5,42.5C 92.9724,32.0004 91.3057,22.0004 87.5,12.5C 87.1667,11.5 86.5,10.8333 85.5,10.5C 81.8333,9.83333 78.1667,9.16667 74.5,8.5C 77.5184,8.66463 80.5184,8.49796 83.5,8C 82.6919,7.69238 82.0253,7.19238 81.5,6.5C 83.7575,2.49187 87.0908,0.491865 91.5,0.5 Z"/></g>
<g><path style="opacity:1" fill="#216950" d="M 121.5,8.5 C 120.876,8.91695 120.543,9.58362 120.5,10.5C 123.316,15.2652 124.65,20.4318 124.5,26C 123.895,31.8206 123.562,37.6539 123.5,43.5C 123.167,43.5 122.833,43.5 122.5,43.5C 122.666,36.1591 122.5,28.8258 122,21.5C 121.627,17.7821 120.461,14.4488 118.5,11.5C 118.5,10.8333 118.5,10.1667 118.5,9.5C 119.151,8.90935 119.818,8.24269 120.5,7.5C 121.107,7.62358 121.44,7.95691 121.5,8.5 Z"/></g>
<g><path style="opacity:0.478" fill="#b4bf5d" d="M 150.5,20.5 C 153.882,23.2148 156.882,26.2148 159.5,29.5C 155.5,27.5 152.5,24.5 150.5,20.5 Z"/></g>
<g><path style="opacity:1" fill="#fe332d" d="M 85.5,10.5 C 86.5,10.8333 87.1667,11.5 87.5,12.5C 87.8436,16.2283 88.5102,19.8949 89.5,23.5C 88.7112,25.4879 87.5445,25.8213 86,24.5C 86.2068,22.2487 86.3735,19.9154 86.5,17.5C 83.0791,17.7616 82.0791,16.4283 83.5,13.5C 82.675,12.6143 81.675,12.281 80.5,12.5C 80.5,13.5 80.5,14.5 80.5,15.5C 77.7276,15.22 75.2276,15.8866 73,17.5C 72.6667,21.1667 72.3333,24.8333 72,28.5C 71.586,28.9574 71.086,29.2907 70.5,29.5C 69.7189,28.2713 69.2189,26.938 69,25.5C 67.4894,27.8616 65.9894,30.1949 64.5,32.5C 62.4263,35.796 61.093,39.4626 60.5,43.5C 57.6443,45.0444 54.6443,46.0444 51.5,46.5C 51.5,45.1667 51.5,43.8333 51.5,42.5C 50.1266,42.3433 48.7932,42.51 47.5,43C 46.6948,44.9717 45.3615,46.4717 43.5,47.5C 42.7896,44.9142 43.7896,42.9142 46.5,41.5C 45.3183,39.0147 45.6516,36.6813 47.5,34.5C 48.1667,35.5 48.8333,36.5 49.5,37.5C 50.8596,30.7284 52.5262,24.0617 54.5,17.5C 56.1667,17.5 57.8333,17.5 59.5,17.5C 59.2497,22.5805 59.7497,27.5805 61,32.5C 61.9996,27.697 63.4996,23.0303 65.5,18.5C 64.8444,16.5466 64.5111,14.5466 64.5,12.5C 71.5084,11.9156 78.5084,11.2489 85.5,10.5 Z"/></g>
<g><path style="opacity:1" fill="#2f6f3a" d="M 139.5,12.5 C 143.112,13.7803 145.779,16.1136 147.5,19.5C 147.893,21.2838 148.559,22.9505 149.5,24.5C 149.5,24.8333 149.5,25.1667 149.5,25.5C 149.631,26.2389 149.464,26.9056 149,27.5C 146.825,21.8349 143.659,16.8349 139.5,12.5 Z"/></g>
<g><path style="opacity:1" fill="#6d6960" d="M 118.5,11.5 C 120.461,14.4488 121.627,17.7821 122,21.5C 122.5,28.8258 122.666,36.1591 122.5,43.5C 121.518,40.0381 121.185,36.3714 121.5,32.5C 121.622,25.3255 120.622,18.3255 118.5,11.5 Z"/></g>
<g><path style="opacity:1" fill="#884b51" d="M 121.5,32.5 C 121.185,36.3714 121.518,40.0381 122.5,43.5C 122.614,45.7179 123.28,47.7179 124.5,49.5C 121.807,48.4485 119.14,47.4485 116.5,46.5C 113.811,44.883 110.811,43.883 107.5,43.5C 106.391,42.71 105.058,42.21 103.5,42C 104.833,41.6667 106.167,41.3333 107.5,41C 104.833,40.3333 102.167,39.6667 99.5,39C 101.156,37.2028 102.156,35.0361 102.5,32.5C 106.306,31.4012 109.973,30.9012 113.5,31C 114.517,29.9505 114.684,28.7839 114,27.5C 112.89,29.0368 111.39,29.7035 109.5,29.5C 110.138,27.54 110.138,25.7067 109.5,24C 111.694,23.6453 113.861,22.4786 116,20.5C 116.772,20.6448 117.439,20.9781 118,21.5C 118.333,24.5 118.667,27.5 119,30.5C 119.417,31.756 120.25,32.4226 121.5,32.5 Z"/></g>
<g><path style="opacity:1" fill="#09a659" d="M 121.5,8.5 C 127.518,9.61368 133.518,10.947 139.5,12.5C 143.659,16.8349 146.825,21.8349 149,27.5C 149.464,26.9056 149.631,26.2389 149.5,25.5C 150.803,27.1423 152.136,28.8089 153.5,30.5C 153.062,30.4346 152.728,30.6012 152.5,31C 154.865,32.7895 156.532,34.9561 157.5,37.5C 155.408,37.5614 153.908,38.5614 153,40.5C 152.421,42.6487 151.921,44.8154 151.5,47C 153.473,51.645 152.473,55.4784 148.5,58.5C 149.025,59.1924 149.692,59.6924 150.5,60C 150.335,61.1169 150.002,62.2836 149.5,63.5C 153.915,67.4159 157.582,71.7492 160.5,76.5C 161.167,76.5 161.833,76.5 162.5,76.5C 161.432,77.4345 160.099,77.7678 158.5,77.5C 158.5,78.8333 158.5,80.1667 158.5,81.5C 157.279,80.9717 156.113,80.305 155,79.5C 154.422,76.4278 153.255,73.7612 151.5,71.5C 145.348,62.8525 137.681,55.6859 128.5,50C 126.21,48.2228 124.543,46.0562 123.5,43.5C 123.562,37.6539 123.895,31.8206 124.5,26C 124.65,20.4318 123.316,15.2652 120.5,10.5C 120.543,9.58362 120.876,8.91695 121.5,8.5 Z"/></g>
<g><path style="opacity:1" fill="#fc3935" d="M 74.5,8.5 C 78.1667,9.16667 81.8333,9.83333 85.5,10.5C 78.5084,11.2489 71.5084,11.9156 64.5,12.5C 64.5111,14.5466 64.8444,16.5466 65.5,18.5C 63.4996,23.0303 61.9996,27.697 61,32.5C 59.7497,27.5805 59.2497,22.5805 59.5,17.5C 57.8333,17.5 56.1667,17.5 54.5,17.5C 52.5262,24.0617 50.8596,30.7284 49.5,37.5C 48.8333,36.5 48.1667,35.5 47.5,34.5C 45.6516,36.6813 45.3183,39.0147 46.5,41.5C 43.7896,42.9142 42.7896,44.9142 43.5,47.5C 45.3615,46.4717 46.6948,44.9717 47.5,43C 48.7932,42.51 50.1266,42.3433 51.5,42.5C 51.5,43.8333 51.5,45.1667 51.5,46.5C 54.6443,46.0444 57.6443,45.0444 60.5,43.5C 61.093,39.4626 62.4263,35.796 64.5,32.5C 64.6611,35.5279 63.9944,38.3612 62.5,41C 62.8333,41.5 63.1667,42 63.5,42.5C 64.5,41.8333 65.5,41.1667 66.5,40.5C 66.8333,40.8333 67.1667,41.1667 67.5,41.5C 65.4121,43.585 63.4121,45.7517 61.5,48C 60.2068,48.49 58.8734,48.6567 57.5,48.5C 56.955,51.9444 54.955,53.1111 51.5,52C 50.565,49.6194 50.2317,47.1194 50.5,44.5C 44.4286,48.1017 40.2619,53.435 38,60.5C 32.4442,66.4934 28.7775,73.4934 27,81.5C 25.6575,82.9023 24.8242,82.5689 24.5,80.5C 25.446,78.7422 25.446,77.0755 24.5,75.5C 23.1038,77.9716 22.2704,80.6383 22,83.5C 21.6174,82.944 21.1174,82.6107 20.5,82.5C 18.3496,74.9108 18.0162,67.2441 19.5,59.5C 20.2174,55.0111 20.2174,50.3444 19.5,45.5C 22.2956,42.2026 25.2956,39.0359 28.5,36C 35.2732,29.893 42.6065,24.5597 50.5,20C 53.5487,15.2842 57.5487,11.6176 62.5,9C 66.4862,8.50115 70.4862,8.33449 74.5,8.5 Z"/></g>
<g><path style="opacity:1" fill="#67bd24" d="M 149.5,25.5 C 149.5,25.1667 149.5,24.8333 149.5,24.5C 154.175,28.1691 158.842,31.8358 163.5,35.5C 159.72,34.7184 156.387,33.0517 153.5,30.5C 152.136,28.8089 150.803,27.1423 149.5,25.5 Z"/></g>
<g><path style="opacity:1" fill="#23844e" d="M 153.5,30.5 C 156.387,33.0517 159.72,34.7184 163.5,35.5C 164.833,36.1667 165.833,37.1667 166.5,38.5C 163.455,38.4921 160.455,38.1587 157.5,37.5C 156.532,34.9561 154.865,32.7895 152.5,31C 152.728,30.6012 153.062,30.4346 153.5,30.5 Z"/></g>
<g><path style="opacity:1" fill="#0bb165" d="M 157.5,37.5 C 160.455,38.1587 163.455,38.4921 166.5,38.5C 167.5,39.8333 168.5,41.1667 169.5,42.5C 168.624,42.3691 167.957,42.7025 167.5,43.5C 170.886,48.859 171.386,54.5256 169,60.5C 167.89,62.0368 166.39,62.7035 164.5,62.5C 163.532,66.3106 161.865,69.8106 159.5,73C 159.989,74.1385 160.322,75.3052 160.5,76.5C 157.582,71.7492 153.915,67.4159 149.5,63.5C 150.002,62.2836 150.335,61.1169 150.5,60C 149.692,59.6924 149.025,59.1924 148.5,58.5C 152.473,55.4784 153.473,51.645 151.5,47C 151.921,44.8154 152.421,42.6487 153,40.5C 153.908,38.5614 155.408,37.5614 157.5,37.5 Z"/></g>
<g><path style="opacity:0.973" fill="#c2dd3c" d="M 147.5,19.5 C 147.833,19.5 148.167,19.5 148.5,19.5C 149.167,19.8333 149.833,20.1667 150.5,20.5C 152.5,24.5 155.5,27.5 159.5,29.5C 163.708,31.5269 167.541,34.1936 171,37.5C 174.857,42.8379 178.024,48.5045 180.5,54.5C 177.983,50.3052 174.649,46.6385 170.5,43.5C 170.5,42.8333 170.167,42.5 169.5,42.5C 168.5,41.1667 167.5,39.8333 166.5,38.5C 165.833,37.1667 164.833,36.1667 163.5,35.5C 158.842,31.8358 154.175,28.1691 149.5,24.5C 148.559,22.9505 147.893,21.2838 147.5,19.5 Z"/></g>
<g><path style="opacity:1" fill="#fc4846" d="M 87.5,12.5 C 91.3057,22.0004 92.9724,32.0004 92.5,42.5C 88.1539,42.3343 83.8206,42.501 79.5,43C 78.5842,43.2784 77.9175,43.7784 77.5,44.5C 70.8662,45.319 65.1995,47.9857 60.5,52.5C 57.5451,54.1223 54.8785,56.1223 52.5,58.5C 51.0783,58.7086 49.745,59.2086 48.5,60C 46.461,62.3745 44.1277,64.3745 41.5,66C 39.5612,67.4321 38.2279,69.2654 37.5,71.5C 31.0339,76.2511 27.3672,82.5845 26.5,90.5C 23.5293,88.5574 21.5293,85.8908 20.5,82.5C 21.1174,82.6107 21.6174,82.944 22,83.5C 22.2704,80.6383 23.1038,77.9716 24.5,75.5C 25.446,77.0755 25.446,78.7422 24.5,80.5C 24.8242,82.5689 25.6575,82.9023 27,81.5C 28.7775,73.4934 32.4442,66.4934 38,60.5C 40.2619,53.435 44.4286,48.1017 50.5,44.5C 50.2317,47.1194 50.565,49.6194 51.5,52C 54.955,53.1111 56.955,51.9444 57.5,48.5C 58.8734,48.6567 60.2068,48.49 61.5,48C 63.4121,45.7517 65.4121,43.585 67.5,41.5C 67.1667,41.1667 66.8333,40.8333 66.5,40.5C 65.5,41.1667 64.5,41.8333 63.5,42.5C 63.1667,42 62.8333,41.5 62.5,41C 63.9944,38.3612 64.6611,35.5279 64.5,32.5C 65.9894,30.1949 67.4894,27.8616 69,25.5C 69.2189,26.938 69.7189,28.2713 70.5,29.5C 71.086,29.2907 71.586,28.9574 72,28.5C 72.3333,24.8333 72.6667,21.1667 73,17.5C 75.2276,15.8866 77.7276,15.22 80.5,15.5C 80.5,14.5 80.5,13.5 80.5,12.5C 81.675,12.281 82.675,12.6143 83.5,13.5C 82.0791,16.4283 83.0791,17.7616 86.5,17.5C 86.3735,19.9154 86.2068,22.2487 86,24.5C 87.5445,25.8213 88.7112,25.4879 89.5,23.5C 88.5102,19.8949 87.8436,16.2283 87.5,12.5 Z"/></g>
<g><path style="opacity:1" fill="#b77964" d="M 77.5,44.5 C 72.4736,47.2113 67.4736,49.878 62.5,52.5C 61.8333,52.5 61.1667,52.5 60.5,52.5C 65.1995,47.9857 70.8662,45.319 77.5,44.5 Z"/></g>
<g><path style="opacity:1" fill="#fbc0a5" d="M 107.5,43.5 C 110.811,43.883 113.811,44.883 116.5,46.5C 112.945,49.3165 109.278,52.3165 105.5,55.5C 104.691,57.0709 104.357,58.7376 104.5,60.5C 103.685,59.5707 102.852,58.5707 102,57.5C 101.667,57.8333 101.333,58.1667 101,58.5C 100.83,62.4934 100.996,66.4934 101.5,70.5C 100.5,70.5 99.5,70.5 98.5,70.5C 98.5,71.5 98.5,72.5 98.5,73.5C 96.7202,72.0101 96.0535,70.0101 96.5,67.5C 95.5,67.5 94.5,67.5 93.5,67.5C 93.719,68.675 93.3857,69.675 92.5,70.5C 91.1861,69.6872 90.0195,68.6872 89,67.5C 88.8333,68.5 88.6667,69.5 88.5,70.5C 90.3866,73.2162 92.0532,76.0495 93.5,79C 93.0541,82.1751 92.5541,85.3418 92,88.5C 88.9553,93.2886 85.4553,97.6219 81.5,101.5C 81.1667,100.833 80.8333,100.167 80.5,99.5C 82.9527,92.2974 84.4527,84.9641 85,77.5C 82.5959,76.0097 80.0959,74.6763 77.5,73.5C 76.7025,73.9569 76.3691,74.6236 76.5,75.5C 75.1667,75.1667 73.8333,74.8333 72.5,74.5C 70.5,73.8333 68.5,73.1667 66.5,72.5C 70.3796,71.0289 74.3796,69.8622 78.5,69C 84.0291,65.7492 83.6958,63.2492 77.5,61.5C 76.4163,61.685 75.4163,62.0183 74.5,62.5C 75.5749,58.062 73.9083,56.062 69.5,56.5C 69.3433,55.1266 69.51,53.7932 70,52.5C 72.6801,52.9847 75.3468,53.3181 78,53.5C 79.2692,52.0953 79.7692,50.4286 79.5,48.5C 75.9162,49.5458 72.2496,50.3792 68.5,51C 67.3816,52.0736 66.3816,53.2402 65.5,54.5C 64.5745,53.3595 63.7412,53.3595 63,54.5C 62.5357,53.9056 62.369,53.2389 62.5,52.5C 67.4736,49.878 72.4736,47.2113 77.5,44.5C 84.2789,44.7994 90.9456,44.1327 97.5,42.5C 100.817,43.0531 104.15,43.3865 107.5,43.5 Z"/></g>
<g><path style="opacity:1" fill="#993733" d="M 19.5,45.5 C 20.2174,50.3444 20.2174,55.0111 19.5,59.5C 18.6246,54.6647 18.6246,49.9981 19.5,45.5 Z"/></g>
<g><path style="opacity:1" fill="#f6d6c3" d="M 116.5,46.5 C 119.14,47.4485 121.807,48.4485 124.5,49.5C 129.118,52.1177 132.784,55.7844 135.5,60.5C 135.167,60.8333 134.833,61.1667 134.5,61.5C 128.98,58.7121 123.146,56.7121 117,55.5C 112.482,55.7237 108.648,57.3904 105.5,60.5C 105.167,60.5 104.833,60.5 104.5,60.5C 104.357,58.7376 104.691,57.0709 105.5,55.5C 109.278,52.3165 112.945,49.3165 116.5,46.5 Z"/></g>
<g><path style="opacity:1" fill="#f5c7b4" d="M 74.5,62.5 C 65.1199,65.0217 56.7866,69.355 49.5,75.5C 48.1667,75.5 46.8333,75.5 45.5,75.5C 45.2338,71.3951 45.7338,67.3951 47,63.5C 49.1906,62.1666 51.024,60.5 52.5,58.5C 54.8785,56.1223 57.5451,54.1223 60.5,52.5C 61.1667,52.5 61.8333,52.5 62.5,52.5C 62.369,53.2389 62.5357,53.9056 63,54.5C 63.7412,53.3595 64.5745,53.3595 65.5,54.5C 66.3816,53.2402 67.3816,52.0736 68.5,51C 72.2496,50.3792 75.9162,49.5458 79.5,48.5C 79.7692,50.4286 79.2692,52.0953 78,53.5C 75.3468,53.3181 72.6801,52.9847 70,52.5C 69.51,53.7932 69.3433,55.1266 69.5,56.5C 73.9083,56.062 75.5749,58.062 74.5,62.5 Z"/></g>
<g><path style="opacity:1" fill="#11a96d" d="M 169.5,42.5 C 170.167,42.5 170.5,42.8333 170.5,43.5C 170.231,46.5255 171.064,49.1922 173,51.5C 173.997,58.5137 172.331,64.8471 168,70.5C 165.96,72.3702 164.127,74.3702 162.5,76.5C 161.833,76.5 161.167,76.5 160.5,76.5C 160.322,75.3052 159.989,74.1385 159.5,73C 161.865,69.8106 163.532,66.3106 164.5,62.5C 166.39,62.7035 167.89,62.0368 169,60.5C 171.386,54.5256 170.886,48.859 167.5,43.5C 167.957,42.7025 168.624,42.3691 169.5,42.5 Z"/></g>
<g><path style="opacity:1" fill="#625344" d="M 66.5,72.5 C 67.463,71.6365 67.463,70.9698 66.5,70.5C 62.7181,72.9041 58.7181,74.4041 54.5,75C 55.6721,74.5814 56.6721,73.9147 57.5,73C 54.2873,73.0322 51.954,74.5322 50.5,77.5C 49.5,77.5 48.5,77.5 47.5,77.5C 48.1667,76.8333 48.8333,76.1667 49.5,75.5C 56.7866,69.355 65.1199,65.0217 74.5,62.5C 75.4163,62.0183 76.4163,61.685 77.5,61.5C 83.6958,63.2492 84.0291,65.7492 78.5,69C 74.3796,69.8622 70.3796,71.0289 66.5,72.5 Z"/></g>
<g><path style="opacity:1" fill="#d09771" d="M 116.5,64.5 C 114.208,65.3395 111.875,66.3395 109.5,67.5C 115.531,67.4431 121.531,67.9431 127.5,69C 130.576,69.911 132.909,71.7443 134.5,74.5C 133.675,75.3857 132.675,75.719 131.5,75.5C 129.805,74.1736 128.472,74.5069 127.5,76.5C 127.5,74.5 126.5,73.5 124.5,73.5C 124.426,71.5891 123.426,70.4224 121.5,70C 118.5,69.3333 115.5,69.3333 112.5,70C 111.167,72.1906 109.5,74.024 107.5,75.5C 106.722,74.8444 106.056,74.0111 105.5,73C 106.148,71.5603 106.481,70.0603 106.5,68.5C 104.901,68.7678 103.568,68.4345 102.5,67.5C 107.061,66.0928 111.728,65.0928 116.5,64.5 Z"/></g>
<g><path style="opacity:1" fill="#805f4a" d="M 52.5,58.5 C 51.024,60.5 49.1906,62.1666 47,63.5C 45.7338,67.3951 45.2338,71.3951 45.5,75.5C 46.8333,75.5 48.1667,75.5 49.5,75.5C 48.8333,76.1667 48.1667,76.8333 47.5,77.5C 45.725,81.3864 44.8916,85.7197 45,90.5C 43.9242,93.6484 42.5909,96.6484 41,99.5C 40.1721,103.466 39.6721,107.466 39.5,111.5C 38.8333,111.5 38.5,111.167 38.5,110.5C 38.9144,105.636 38.9144,100.969 38.5,96.5C 41.546,92.8764 43.546,88.7097 44.5,84C 43.5242,79.3342 41.6909,75.1675 39,71.5C 38.3618,75.1697 38.8618,78.6697 40.5,82C 38.2992,82.8249 36.4659,82.3249 35,80.5C 34.7883,82.7801 33.9549,84.7801 32.5,86.5C 35.0578,88.1201 35.0578,89.6201 32.5,91C 32.9574,91.414 33.2907,91.914 33.5,92.5C 32.7261,93.7112 31.8928,93.7112 31,92.5C 30.3162,93.7839 30.4829,94.9505 31.5,96C 30.5509,96.6172 29.7175,96.4506 29,95.5C 28.51,94.2068 28.3433,92.8734 28.5,91.5C 28.7438,86.9328 29.9104,82.5994 32,78.5C 34.4536,76.5588 36.287,74.2254 37.5,71.5C 38.2279,69.2654 39.5612,67.4321 41.5,66C 44.1277,64.3745 46.461,62.3745 48.5,60C 49.745,59.2086 51.0783,58.7086 52.5,58.5 Z"/></g>
<g><path style="opacity:1" fill="#e5ddd6" d="M 124.5,73.5 C 126.5,73.5 127.5,74.5 127.5,76.5C 126.295,78.1376 124.962,78.4709 123.5,77.5C 123.5,77.1667 123.5,76.8333 123.5,76.5C 124.404,75.791 124.737,74.791 124.5,73.5 Z"/></g>
<g><path style="opacity:1" fill="#595047" d="M 72.5,74.5 C 73.8333,74.8333 75.1667,75.1667 76.5,75.5C 75.0582,76.8195 74.3915,78.4862 74.5,80.5C 71.1667,80.5 67.8333,80.5 64.5,80.5C 63.2652,80.2786 62.2652,79.6119 61.5,78.5C 60.8333,79.1667 60.1667,79.8333 59.5,80.5C 58.2888,79.7261 58.2888,78.8928 59.5,78C 63.2899,74.9791 67.6232,73.8124 72.5,74.5 Z"/></g>
<g><path style="opacity:1" fill="#f5c0a1" d="M 138.5,70.5 C 137.683,72.9686 137.183,75.6353 137,78.5C 134.957,79.5794 133.624,81.246 133,83.5C 132.313,81.4325 132.48,79.4325 133.5,77.5C 133.043,76.7025 132.376,76.3691 131.5,76.5C 131.5,76.1667 131.5,75.8333 131.5,75.5C 132.675,75.719 133.675,75.3857 134.5,74.5C 132.909,71.7443 130.576,69.911 127.5,69C 121.531,67.9431 115.531,67.4431 109.5,67.5C 111.875,66.3395 114.208,65.3395 116.5,64.5C 123.1,63.776 129.767,63.9427 136.5,65C 138.155,66.4443 138.822,68.2776 138.5,70.5 Z"/></g>
<g><path style="opacity:1" fill="#866d61" d="M 124.5,73.5 C 124.737,74.791 124.404,75.791 123.5,76.5C 123.631,75.6236 123.298,74.9569 122.5,74.5C 120.5,73.8333 118.5,73.1667 116.5,72.5C 115.526,74.7427 115.192,77.076 115.5,79.5C 118.421,79.7174 121.087,79.0507 123.5,77.5C 124.962,78.4709 126.295,78.1376 127.5,76.5C 128.472,74.5069 129.805,74.1736 131.5,75.5C 131.5,75.8333 131.5,76.1667 131.5,76.5C 130.089,78.539 128.089,79.539 125.5,79.5C 118.772,80.8272 112.105,80.4939 105.5,78.5C 106.612,77.7348 107.279,76.7348 107.5,75.5C 109.5,74.024 111.167,72.1906 112.5,70C 115.5,69.3333 118.5,69.3333 121.5,70C 123.426,70.4224 124.426,71.5891 124.5,73.5 Z"/></g>
<g><path style="opacity:1" fill="#e3dedf" d="M 112.5,73.5 C 114.256,74.5521 114.923,76.2188 114.5,78.5C 113.167,78.5 111.833,78.5 110.5,78.5C 110.392,76.4862 111.058,74.8195 112.5,73.5 Z"/></g>
<g><path style="opacity:1" fill="#464239" d="M 123.5,76.5 C 123.5,76.8333 123.5,77.1667 123.5,77.5C 121.087,79.0507 118.421,79.7174 115.5,79.5C 115.192,77.076 115.526,74.7427 116.5,72.5C 118.5,73.1667 120.5,73.8333 122.5,74.5C 123.298,74.9569 123.631,75.6236 123.5,76.5 Z"/></g>
<g><path style="opacity:1" fill="#90724f" d="M 151.5,71.5 C 153.255,73.7612 154.422,76.4278 155,79.5C 156.113,80.305 157.279,80.9717 158.5,81.5C 158.833,82.1667 159.167,82.8333 159.5,83.5C 157.956,83.2969 156.622,82.6302 155.5,81.5C 154.893,81.6236 154.56,81.9569 154.5,82.5C 153.292,81.7659 151.959,81.4326 150.5,81.5C 150.146,77.7702 148.813,74.4369 146.5,71.5C 148.003,70.9478 149.669,70.9478 151.5,71.5 Z"/></g>
<g><path style="opacity:1" fill="#c59776" d="M 66.5,72.5 C 68.5,73.1667 70.5,73.8333 72.5,74.5C 67.6232,73.8124 63.2899,74.9791 59.5,78C 58.2888,78.8928 58.2888,79.7261 59.5,80.5C 60.1667,79.8333 60.8333,79.1667 61.5,78.5C 62.2652,79.6119 63.2652,80.2786 64.5,80.5C 63.8478,81.7251 62.6811,82.3917 61,82.5C 58.5021,82.9172 56.0021,83.2505 53.5,83.5C 53.7438,80.7374 55.0771,78.5707 57.5,77C 55.0709,76.2967 52.7375,76.4634 50.5,77.5C 51.954,74.5322 54.2873,73.0322 57.5,73C 56.6721,73.9147 55.6721,74.5814 54.5,75C 58.7181,74.4041 62.7181,72.9041 66.5,70.5C 67.463,70.9698 67.463,71.6365 66.5,72.5 Z"/></g>
<g><path style="opacity:1" fill="#674e3d" d="M 122.5,43.5 C 122.833,43.5 123.167,43.5 123.5,43.5C 124.543,46.0562 126.21,48.2228 128.5,50C 137.681,55.6859 145.348,62.8525 151.5,71.5C 149.669,70.9478 148.003,70.9478 146.5,71.5C 148.813,74.4369 150.146,77.7702 150.5,81.5C 151.959,81.4326 153.292,81.7659 154.5,82.5C 154.5,84.1667 154.5,85.8333 154.5,87.5C 154.5,88.5 154.5,89.5 154.5,90.5C 153.178,90.33 152.011,90.6634 151,91.5C 148.993,90.3313 146.827,89.6646 144.5,89.5C 143.807,84.8289 142.807,80.1622 141.5,75.5C 140.737,73.6316 139.737,71.9649 138.5,70.5C 138.822,68.2776 138.155,66.4443 136.5,65C 129.767,63.9427 123.1,63.776 116.5,64.5C 111.728,65.0928 107.061,66.0928 102.5,67.5C 102.166,64.509 103.166,62.1757 105.5,60.5C 108.648,57.3904 112.482,55.7237 117,55.5C 123.146,56.7121 128.98,58.7121 134.5,61.5C 134.833,61.1667 135.167,60.8333 135.5,60.5C 132.784,55.7844 129.118,52.1177 124.5,49.5C 123.28,47.7179 122.614,45.7179 122.5,43.5 Z"/></g>
<g><path style="opacity:1" fill="#71c711" d="M 170.5,43.5 C 174.649,46.6385 177.983,50.3052 180.5,54.5C 180.813,57.2469 180.48,59.9135 179.5,62.5C 177.393,68.8509 175.393,75.1842 173.5,81.5C 170.813,81.3359 168.146,81.5026 165.5,82C 164.736,84.0693 164.236,86.236 164,88.5C 163.617,87.944 163.117,87.6107 162.5,87.5C 162.262,85.5956 161.262,84.2623 159.5,83.5C 159.167,82.8333 158.833,82.1667 158.5,81.5C 158.5,80.1667 158.5,78.8333 158.5,77.5C 160.099,77.7678 161.432,77.4345 162.5,76.5C 164.127,74.3702 165.96,72.3702 168,70.5C 172.331,64.8471 173.997,58.5137 173,51.5C 171.064,49.1922 170.231,46.5255 170.5,43.5 Z"/></g>
<g><path style="opacity:1" fill="#b16f46" d="M 159.5,83.5 C 161.207,86.754 160.207,88.754 156.5,89.5C 156.167,88.5 155.5,87.8333 154.5,87.5C 154.5,85.8333 154.5,84.1667 154.5,82.5C 154.56,81.9569 154.893,81.6236 155.5,81.5C 156.622,82.6302 157.956,83.2969 159.5,83.5 Z"/></g>
<g><path style="opacity:1" fill="#fdd5c2" d="M 138.5,70.5 C 139.737,71.9649 140.737,73.6316 141.5,75.5C 141.5,79.1667 141.5,82.8333 141.5,86.5C 141.657,87.8734 141.49,89.2068 141,90.5C 138,93.1667 135,95.8333 132,98.5C 131.536,99.0944 131.369,99.7611 131.5,100.5C 124.886,103.391 118.386,103.058 112,99.5C 111.392,97.8455 110.892,96.1789 110.5,94.5C 112.842,94.5041 114.842,95.3375 116.5,97C 119.893,98.1675 122.559,97.3342 124.5,94.5C 119.26,93.4127 119.26,92.4127 124.5,91.5C 124.785,89.712 124.452,88.0453 123.5,86.5C 115.406,82.6228 115.739,80.7894 124.5,81C 125.056,80.6174 125.389,80.1174 125.5,79.5C 128.089,79.539 130.089,78.539 131.5,76.5C 132.376,76.3691 133.043,76.7025 133.5,77.5C 132.48,79.4325 132.313,81.4325 133,83.5C 133.624,81.246 134.957,79.5794 137,78.5C 137.183,75.6353 137.683,72.9686 138.5,70.5 Z"/></g>
<g><path style="opacity:0.694" fill="#a9ce56" d="M 180.5,54.5 C 181.652,55.8336 182.652,57.3336 183.5,59C 182.213,61.0712 181.047,63.2379 180,65.5C 179.177,71.1386 177.51,76.472 175,81.5C 175.264,87.4505 173.764,92.7838 170.5,97.5C 170.443,96.391 170.11,95.391 169.5,94.5C 172.43,90.7082 173.763,86.3748 173.5,81.5C 175.393,75.1842 177.393,68.8509 179.5,62.5C 180.48,59.9135 180.813,57.2469 180.5,54.5 Z"/></g>
<g><path style="opacity:1" fill="#3cb843" d="M 173.5,81.5 C 173.763,86.3748 172.43,90.7082 169.5,94.5C 166.892,94.4003 164.558,95.0669 162.5,96.5C 163.833,93.5 163.833,90.5 162.5,87.5C 163.117,87.6107 163.617,87.944 164,88.5C 164.236,86.236 164.736,84.0693 165.5,82C 168.146,81.5026 170.813,81.3359 173.5,81.5 Z"/></g>
<g><path style="opacity:1" fill="#f6b190" d="M 104.5,60.5 C 104.833,60.5 105.167,60.5 105.5,60.5C 103.166,62.1757 102.166,64.509 102.5,67.5C 103.568,68.4345 104.901,68.7678 106.5,68.5C 106.481,70.0603 106.148,71.5603 105.5,73C 106.056,74.0111 106.722,74.8444 107.5,75.5C 107.279,76.7348 106.612,77.7348 105.5,78.5C 112.105,80.4939 118.772,80.8272 125.5,79.5C 125.389,80.1174 125.056,80.6174 124.5,81C 115.739,80.7894 115.406,82.6228 123.5,86.5C 124.452,88.0453 124.785,89.712 124.5,91.5C 119.26,92.4127 119.26,93.4127 124.5,94.5C 122.559,97.3342 119.893,98.1675 116.5,97C 114.842,95.3375 112.842,94.5041 110.5,94.5C 110.542,92.1511 109.375,90.8178 107,90.5C 105.97,90.8361 105.47,91.5028 105.5,92.5C 104.521,91.2347 103.521,89.9014 102.5,88.5C 101.415,83.3953 100.081,78.3953 98.5,73.5C 98.5,72.5 98.5,71.5 98.5,70.5C 99.5,70.5 100.5,70.5 101.5,70.5C 100.996,66.4934 100.83,62.4934 101,58.5C 101.333,58.1667 101.667,57.8333 102,57.5C 102.852,58.5707 103.685,59.5707 104.5,60.5 Z"/></g>
<g><path style="opacity:1" fill="#f5946a" d="M 110.5,82.5 C 112.806,82.9926 115.139,83.3259 117.5,83.5C 117.318,85.5914 117.652,87.5914 118.5,89.5C 114.698,92.4279 111.532,91.7612 109,87.5C 108.387,85.5048 108.887,83.8381 110.5,82.5 Z"/></g>
<g><path style="opacity:1" fill="#f2b491" d="M 159.5,83.5 C 161.262,84.2623 162.262,85.5956 162.5,87.5C 163.833,90.5 163.833,93.5 162.5,96.5C 161.047,99.3935 160.047,102.394 159.5,105.5C 158.5,104.167 157.5,104.167 156.5,105.5C 156.821,103.952 157.821,103.285 159.5,103.5C 159.5,102.167 159.5,100.833 159.5,99.5C 156.477,99.4825 153.81,98.4825 151.5,96.5C 152.18,95.1401 152.847,93.8068 153.5,92.5C 154.694,91.7281 155.694,90.7281 156.5,89.5C 160.207,88.754 161.207,86.754 159.5,83.5 Z"/></g>
<g><path style="opacity:1" fill="#594942" d="M 87.5,0.5 C 88.8333,0.5 90.1667,0.5 91.5,0.5C 87.0908,0.491865 83.7575,2.49187 81.5,6.5C 82.0253,7.19238 82.6919,7.69238 83.5,8C 80.5184,8.49796 77.5184,8.66463 74.5,8.5C 70.4862,8.33449 66.4862,8.50115 62.5,9C 57.5487,11.6176 53.5487,15.2842 50.5,20C 42.6065,24.5597 35.2732,29.893 28.5,36C 25.2956,39.0359 22.2956,42.2026 19.5,45.5C 18.6246,49.9981 18.6246,54.6647 19.5,59.5C 18.0162,67.2441 18.3496,74.9108 20.5,82.5C 21.5293,85.8908 23.5293,88.5574 26.5,90.5C 26.8417,91.3382 27.5084,91.6716 28.5,91.5C 28.3433,92.8734 28.51,94.2068 29,95.5C 29.7175,96.4506 30.5509,96.6172 31.5,96C 30.4829,94.9505 30.3162,93.7839 31,92.5C 31.8928,93.7112 32.7261,93.7112 33.5,92.5C 33.2907,91.914 32.9574,91.414 32.5,91C 35.0578,89.6201 35.0578,88.1201 32.5,86.5C 33.9549,84.7801 34.7883,82.7801 35,80.5C 36.4659,82.3249 38.2992,82.8249 40.5,82C 38.8618,78.6697 38.3618,75.1697 39,71.5C 41.6909,75.1675 43.5242,79.3342 44.5,84C 43.546,88.7097 41.546,92.8764 38.5,96.5C 36.8828,97.038 35.2161,97.3713 33.5,97.5C 33.8867,101.989 34.8867,106.323 36.5,110.5C 37.9694,115.382 38.9694,120.382 39.5,125.5C 36.4578,116.544 33.2912,107.544 30,98.5C 20.546,91.6884 15.7127,82.355 15.5,70.5C 17.3172,61.5069 18.1505,52.5069 18,43.5C 27.8667,34.4876 38.3667,26.3209 49.5,19C 56.1116,8.69293 65.4449,4.3596 77.5,6C 79.8569,2.32278 83.1902,0.489442 87.5,0.5 Z"/></g>
<g><path style="opacity:1" fill="#ba5549" d="M 37.5,71.5 C 36.287,74.2254 34.4536,76.5588 32,78.5C 29.9104,82.5994 28.7438,86.9328 28.5,91.5C 27.5084,91.6716 26.8417,91.3382 26.5,90.5C 27.3672,82.5845 31.0339,76.2511 37.5,71.5 Z"/></g>
<g><path style="opacity:1" fill="#f7c2a7" d="M 141.5,86.5 C 144.282,92.0645 147.116,97.7311 150,103.5C 150.875,108.227 150.042,112.56 147.5,116.5C 143.933,118.557 140.766,121.223 138,124.5C 137.719,129.215 137.219,133.882 136.5,138.5C 135.566,137.432 135.232,136.099 135.5,134.5C 136.485,130.366 136.818,126.032 136.5,121.5C 141.833,118.339 145.833,114.173 148.5,109C 148.427,104.196 147.427,103.696 145.5,107.5C 143.345,106.095 141.179,104.762 139,103.5C 138.586,103.957 138.086,104.291 137.5,104.5C 136.548,102.955 136.215,101.288 136.5,99.5C 134.784,99.6287 133.117,99.962 131.5,100.5C 131.369,99.7611 131.536,99.0944 132,98.5C 135,95.8333 138,93.1667 141,90.5C 141.49,89.2068 141.657,87.8734 141.5,86.5 Z"/></g>
<g><path style="opacity:1" fill="#f2c5b5" d="M 153.5,92.5 C 152.847,93.8068 152.18,95.1401 151.5,96.5C 153.81,98.4825 156.477,99.4825 159.5,99.5C 159.5,100.833 159.5,102.167 159.5,103.5C 157.821,103.285 156.821,103.952 156.5,105.5C 156.027,106.906 155.027,107.573 153.5,107.5C 153.185,102.194 151.185,97.5269 147.5,93.5C 149.396,92.5344 151.396,92.2011 153.5,92.5 Z"/></g>
<g><path style="opacity:1" fill="#a6cd30" d="M 169.5,94.5 C 170.11,95.391 170.443,96.391 170.5,97.5C 169.24,100.596 167.074,102.929 164,104.5C 162.856,107.08 162.022,109.747 161.5,112.5C 161.167,112.5 160.833,112.5 160.5,112.5C 159.449,111.778 158.782,110.778 158.5,109.5C 158.833,108.167 159.167,106.833 159.5,105.5C 160.047,102.394 161.047,99.3935 162.5,96.5C 164.558,95.0669 166.892,94.4003 169.5,94.5 Z"/></g>
<g><path style="opacity:1" fill="#f2c8a0" d="M 38.5,96.5 C 38.9144,100.969 38.9144,105.636 38.5,110.5C 37.8333,110.5 37.1667,110.5 36.5,110.5C 34.8867,106.323 33.8867,101.989 33.5,97.5C 35.2161,97.3713 36.8828,97.038 38.5,96.5 Z"/></g>
<g><path style="opacity:1" fill="#fccfb9" d="M 98.5,73.5 C 100.081,78.3953 101.415,83.3953 102.5,88.5C 103.521,89.9014 104.521,91.2347 105.5,92.5C 105.5,92.8333 105.5,93.1667 105.5,93.5C 105.5,96.8333 105.5,100.167 105.5,103.5C 104.167,103.5 102.833,103.5 101.5,103.5C 101.09,97.2915 99.5903,97.2915 97,103.5C 96.9379,107.148 97.1046,110.815 97.5,114.5C 93.0505,114.579 88.7171,113.912 84.5,112.5C 83.3128,111.481 82.3128,110.314 81.5,109C 80.5509,108.383 79.7175,108.549 79,109.5C 78.5065,107.866 78.3398,106.199 78.5,104.5C 78.44,103.957 78.1067,103.624 77.5,103.5C 74.8699,104.804 72.5366,106.47 70.5,108.5C 69.4104,106.237 68.0771,106.07 66.5,108C 63.8333,108.667 61.1667,108.667 58.5,108C 59.5348,106.493 59.3681,104.993 58,103.5C 57.6532,105.18 56.6532,106.18 55,106.5C 52.9091,106.421 50.7424,106.087 48.5,105.5C 47.5,107.167 46.1667,108.5 44.5,109.5C 45.4201,114.596 46.7534,119.596 48.5,124.5C 48.1667,125.167 47.8333,125.833 47.5,126.5C 46.16,125.133 44.8267,123.8 43.5,122.5C 41.7909,119.045 40.4576,115.379 39.5,111.5C 39.6721,107.466 40.1721,103.466 41,99.5C 42.5909,96.6484 43.9242,93.6484 45,90.5C 44.8916,85.7197 45.725,81.3864 47.5,77.5C 48.5,77.5 49.5,77.5 50.5,77.5C 52.7375,76.4634 55.0709,76.2967 57.5,77C 55.0771,78.5707 53.7438,80.7374 53.5,83.5C 53.33,84.8221 53.6634,85.9887 54.5,87C 61.1583,87.4996 67.825,87.6663 74.5,87.5C 74.3016,89.5753 74.1349,91.5753 74,93.5C 77.1792,91.6542 79.6792,89.1542 81.5,86C 80.3205,82.7388 77.9871,80.9055 74.5,80.5C 74.3915,78.4862 75.0582,76.8195 76.5,75.5C 76.3691,74.6236 76.7025,73.9569 77.5,73.5C 80.0959,74.6763 82.5959,76.0097 85,77.5C 84.4527,84.9641 82.9527,92.2974 80.5,99.5C 80.8333,100.167 81.1667,100.833 81.5,101.5C 85.4553,97.6219 88.9553,93.2886 92,88.5C 92.5541,85.3418 93.0541,82.1751 93.5,79C 92.0532,76.0495 90.3866,73.2162 88.5,70.5C 88.6667,69.5 88.8333,68.5 89,67.5C 90.0195,68.6872 91.1861,69.6872 92.5,70.5C 93.3857,69.675 93.719,68.675 93.5,67.5C 94.5,67.5 95.5,67.5 96.5,67.5C 96.0535,70.0101 96.7202,72.0101 98.5,73.5 Z"/></g>
<g><path style="opacity:1" fill="#fedbcb" d="M 51.5,88.5 C 57.1304,88.1782 62.6304,88.8449 68,90.5C 69.2259,90.3552 70.3926,90.0219 71.5,89.5C 71.8333,90.1667 72.1667,90.8333 72.5,91.5C 71.0026,94.4948 69.5026,97.4948 68,100.5C 67.3109,101.357 66.4776,102.023 65.5,102.5C 64.5,101.167 63.5,99.8333 62.5,98.5C 60.0162,99.7728 57.5162,99.7728 55,98.5C 53.3058,100.429 51.1391,101.429 48.5,101.5C 48.8573,96.9716 49.8573,92.6383 51.5,88.5 Z"/></g>
<g><path style="opacity:1" fill="#df956b" d="M 64.5,80.5 C 67.8333,80.5 71.1667,80.5 74.5,80.5C 77.9871,80.9055 80.3205,82.7388 81.5,86C 79.6792,89.1542 77.1792,91.6542 74,93.5C 74.1349,91.5753 74.3016,89.5753 74.5,87.5C 67.825,87.6663 61.1583,87.4996 54.5,87C 53.6634,85.9887 53.33,84.8221 53.5,83.5C 56.0021,83.2505 58.5021,82.9172 61,82.5C 62.6811,82.3917 63.8478,81.7251 64.5,80.5 Z"/></g>
<g><path style="opacity:1" fill="#876e5b" d="M 141.5,75.5 C 142.807,80.1622 143.807,84.8289 144.5,89.5C 146.827,89.6646 148.993,90.3313 151,91.5C 152.011,90.6634 153.178,90.33 154.5,90.5C 154.5,89.5 154.5,88.5 154.5,87.5C 155.5,87.8333 156.167,88.5 156.5,89.5C 155.694,90.7281 154.694,91.7281 153.5,92.5C 151.396,92.2011 149.396,92.5344 147.5,93.5C 151.185,97.5269 153.185,102.194 153.5,107.5C 152.427,109.653 152.427,111.653 153.5,113.5C 152.341,115.25 150.674,116.25 148.5,116.5C 148.167,116.5 147.833,116.5 147.5,116.5C 150.042,112.56 150.875,108.227 150,103.5C 147.116,97.7311 144.282,92.0645 141.5,86.5C 141.5,82.8333 141.5,79.1667 141.5,75.5 Z"/></g>
<g><path style="opacity:1" fill="#eda57b" d="M 110.5,94.5 C 110.892,96.1789 111.392,97.8455 112,99.5C 118.386,103.058 124.886,103.391 131.5,100.5C 133.117,99.962 134.784,99.6287 136.5,99.5C 136.215,101.288 136.548,102.955 137.5,104.5C 138.086,104.291 138.586,103.957 139,103.5C 141.179,104.762 143.345,106.095 145.5,107.5C 147.427,103.696 148.427,104.196 148.5,109C 145.833,114.173 141.833,118.339 136.5,121.5C 137.084,118.715 136.084,117.048 133.5,116.5C 126.5,116.5 119.5,116.5 112.5,116.5C 110.473,116.662 108.473,116.495 106.5,116C 109.229,115.434 111.229,113.934 112.5,111.5C 112.821,110.183 113.154,108.849 113.5,107.5C 112.046,105.543 110.38,103.71 108.5,102C 110.5,102.667 112.5,103.333 114.5,104C 112.497,101.36 109.831,99.8603 106.5,99.5C 107.831,97.1765 107.498,95.1765 105.5,93.5C 105.5,93.1667 105.5,92.8333 105.5,92.5C 105.47,91.5028 105.97,90.8361 107,90.5C 109.375,90.8178 110.542,92.1511 110.5,94.5 Z"/></g>
<g><path style="opacity:1" fill="#f8bc9d" d="M 105.5,93.5 C 107.498,95.1765 107.831,97.1765 106.5,99.5C 109.831,99.8603 112.497,101.36 114.5,104C 112.5,103.333 110.5,102.667 108.5,102C 110.38,103.71 112.046,105.543 113.5,107.5C 113.154,108.849 112.821,110.183 112.5,111.5C 108.45,112.473 105.117,114.64 102.5,118C 99.1832,118.498 95.8499,118.665 92.5,118.5C 91.0413,118.567 89.7079,118.234 88.5,117.5C 82.3331,111.867 76.3331,112.201 70.5,118.5C 71.7658,119.362 73.0992,120.029 74.5,120.5C 73.8333,121.167 73.1667,121.833 72.5,122.5C 72.1667,122.5 71.8333,122.5 71.5,122.5C 70.5,122.5 69.5,122.5 68.5,122.5C 64.838,122.034 61.5046,122.701 58.5,124.5C 58.5569,123.391 58.8902,122.391 59.5,121.5C 61.9266,119.442 64.5932,117.609 67.5,116C 70.7244,111.612 74.3911,107.778 78.5,104.5C 78.3398,106.199 78.5065,107.866 79,109.5C 79.7175,108.549 80.5509,108.383 81.5,109C 82.3128,110.314 83.3128,111.481 84.5,112.5C 88.7171,113.912 93.0505,114.579 97.5,114.5C 97.1046,110.815 96.9379,107.148 97,103.5C 99.5903,97.2915 101.09,97.2915 101.5,103.5C 102.833,103.5 104.167,103.5 105.5,103.5C 105.5,100.167 105.5,96.8333 105.5,93.5 Z"/></g>
<g><path style="opacity:1" fill="#fbbc9c" d="M 115.5,103.5 C 118.764,104.324 122.098,104.658 125.5,104.5C 125.167,106.5 124.833,108.5 124.5,110.5C 127.247,110.187 129.914,110.52 132.5,111.5C 133.246,112.736 133.579,114.07 133.5,115.5C 127.788,115.687 122.121,115.354 116.5,114.5C 116.677,110.766 116.344,107.099 115.5,103.5 Z"/></g>
<g><path style="opacity:1" fill="#b48367" d="M 78.5,104.5 C 74.3911,107.778 70.7244,111.612 67.5,116C 64.5932,117.609 61.9266,119.442 59.5,121.5C 59.1583,120.662 58.4916,120.328 57.5,120.5C 63.107,117.894 67.4403,113.894 70.5,108.5C 72.5366,106.47 74.8699,104.804 77.5,103.5C 78.1067,103.624 78.44,103.957 78.5,104.5 Z"/></g>
<g><path style="opacity:1" fill="#e79e5d" d="M 159.5,105.5 C 159.167,106.833 158.833,108.167 158.5,109.5C 156.833,110.833 155.167,112.167 153.5,113.5C 152.427,111.653 152.427,109.653 153.5,107.5C 155.027,107.573 156.027,106.906 156.5,105.5C 157.5,104.167 158.5,104.167 159.5,105.5 Z"/></g>
<g><path style="opacity:1" fill="#f8c4a2" d="M 70.5,108.5 C 67.4403,113.894 63.107,117.894 57.5,120.5C 50.8647,123.104 48.5314,127.77 50.5,134.5C 50.8333,136.5 51.1667,138.5 51.5,140.5C 51.1667,140.5 50.8333,140.5 50.5,140.5C 49.7321,136.298 47.8988,132.631 45,129.5C 44.338,127.187 43.838,124.854 43.5,122.5C 44.8267,123.8 46.16,125.133 47.5,126.5C 47.8333,125.833 48.1667,125.167 48.5,124.5C 46.7534,119.596 45.4201,114.596 44.5,109.5C 46.1667,108.5 47.5,107.167 48.5,105.5C 50.7424,106.087 52.9091,106.421 55,106.5C 56.6532,106.18 57.6532,105.18 58,103.5C 59.3681,104.993 59.5348,106.493 58.5,108C 61.1667,108.667 63.8333,108.667 66.5,108C 68.0771,106.07 69.4104,106.237 70.5,108.5 Z"/></g>
<g><path style="opacity:1" fill="#b68a5a" d="M 112.5,111.5 C 111.229,113.934 109.229,115.434 106.5,116C 108.473,116.495 110.473,116.662 112.5,116.5C 107.249,118.025 101.916,119.359 96.5,120.5C 96.5,121.5 96.5,122.5 96.5,123.5C 95.1667,123.5 93.8333,123.5 92.5,123.5C 93.1098,122.609 93.4431,121.609 93.5,120.5C 93.1667,119.833 92.8333,119.167 92.5,118.5C 95.8499,118.665 99.1832,118.498 102.5,118C 105.117,114.64 108.45,112.473 112.5,111.5 Z"/></g>
<g><path style="opacity:1" fill="#e2a472" d="M 88.5,117.5 C 84.054,119.146 79.3873,120.146 74.5,120.5C 73.0992,120.029 71.7658,119.362 70.5,118.5C 76.3331,112.201 82.3331,111.867 88.5,117.5 Z"/></g>
<g><path style="opacity:1" fill="#9ec209" d="M 112.5,116.5 C 119.5,116.5 126.5,116.5 133.5,116.5C 133.833,117.167 134.167,117.833 134.5,118.5C 134.795,125.588 134.462,132.588 133.5,139.5C 131.952,139.179 131.285,138.179 131.5,136.5C 131.998,133.533 132.331,130.533 132.5,127.5C 132.41,125.036 131.743,122.87 130.5,121C 131.624,120.751 132.624,120.251 133.5,119.5C 133,119.167 132.5,118.833 132,118.5C 127.336,119.354 122.836,120.354 118.5,121.5C 115.219,121.42 112.219,122.087 109.5,123.5C 105.833,123.5 102.167,123.5 98.5,123.5C 97.8333,123.5 97.1667,123.5 96.5,123.5C 96.5,122.5 96.5,121.5 96.5,120.5C 101.916,119.359 107.249,118.025 112.5,116.5 Z"/></g>
<g><path style="opacity:1" fill="#f4cd18" d="M 147.5,116.5 C 147.833,116.5 148.167,116.5 148.5,116.5C 147.873,121.141 147.54,125.807 147.5,130.5C 146.21,132.792 144.543,134.792 142.5,136.5C 140.606,137.048 138.94,138.048 137.5,139.5C 136.893,139.376 136.56,139.043 136.5,138.5C 137.219,133.882 137.719,129.215 138,124.5C 140.766,121.223 143.933,118.557 147.5,116.5 Z"/></g>
<g><path style="opacity:1" fill="#8c9328" d="M 88.5,117.5 C 89.7079,118.234 91.0413,118.567 92.5,118.5C 92.8333,119.167 93.1667,119.833 93.5,120.5C 86.5084,121.249 79.5084,121.916 72.5,122.5C 73.1667,121.833 73.8333,121.167 74.5,120.5C 79.3873,120.146 84.054,119.146 88.5,117.5 Z"/></g>
<g><path style="opacity:1" fill="#638709" d="M 131.5,136.5 C 130.833,132.5 130.167,128.5 129.5,124.5C 128.833,124.5 128.167,124.5 127.5,124.5C 127.167,123.5 126.5,122.833 125.5,122.5C 123.393,121.532 121.059,121.198 118.5,121.5C 122.836,120.354 127.336,119.354 132,118.5C 132.5,118.833 133,119.167 133.5,119.5C 132.624,120.251 131.624,120.751 130.5,121C 131.743,122.87 132.41,125.036 132.5,127.5C 132.331,130.533 131.998,133.533 131.5,136.5 Z"/></g>
<g><path style="opacity:1" fill="#817811" d="M 118.5,121.5 C 116.012,123.388 113.012,124.055 109.5,123.5C 112.219,122.087 115.219,121.42 118.5,121.5 Z"/></g>
<g><path style="opacity:0.804" fill="#64564e" d="M 160.5,112.5 C 160.833,112.5 161.167,112.5 161.5,112.5C 163.434,120.36 160.768,125.86 153.5,129C 152.207,129.49 150.873,129.657 149.5,129.5C 149.461,132.535 148.461,135.202 146.5,137.5C 145.833,137.833 145.167,138.167 144.5,138.5C 142.007,138.869 141.34,138.203 142.5,136.5C 144.543,134.792 146.21,132.792 147.5,130.5C 148.404,129.791 148.737,128.791 148.5,127.5C 153.84,127.335 157.34,124.668 159,119.5C 159.186,116.964 159.686,114.631 160.5,112.5 Z"/></g>
<g><path style="opacity:1" fill="#945120" d="M 118.5,121.5 C 121.059,121.198 123.393,121.532 125.5,122.5C 124.29,122.932 123.29,123.599 122.5,124.5C 119.5,124.5 116.5,124.5 113.5,124.5C 108.5,124.5 103.5,124.5 98.5,124.5C 98.5,124.167 98.5,123.833 98.5,123.5C 102.167,123.5 105.833,123.5 109.5,123.5C 113.012,124.055 116.012,123.388 118.5,121.5 Z"/></g>
<g><path style="opacity:1" fill="#836546" d="M 158.5,109.5 C 158.782,110.778 159.449,111.778 160.5,112.5C 159.686,114.631 159.186,116.964 159,119.5C 157.34,124.668 153.84,127.335 148.5,127.5C 148.737,128.791 148.404,129.791 147.5,130.5C 147.54,125.807 147.873,121.141 148.5,116.5C 150.674,116.25 152.341,115.25 153.5,113.5C 155.167,112.167 156.833,110.833 158.5,109.5 Z"/></g>
<g><path style="opacity:1" fill="#6e830e" d="M 68.5,122.5 C 69.5,122.5 70.5,122.5 71.5,122.5C 71.33,123.822 71.6634,124.989 72.5,126C 75.146,126.497 77.8127,126.664 80.5,126.5C 75.9946,127.499 71.3279,127.499 66.5,126.5C 64.8008,126.66 63.1341,126.494 61.5,126C 64.3029,125.385 66.6363,124.218 68.5,122.5 Z"/></g>
<g><path style="opacity:1" fill="#94b90a" d="M 93.5,120.5 C 93.4431,121.609 93.1098,122.609 92.5,123.5C 88.7653,125.434 84.7653,126.434 80.5,126.5C 77.8127,126.664 75.146,126.497 72.5,126C 71.6634,124.989 71.33,123.822 71.5,122.5C 71.8333,122.5 72.1667,122.5 72.5,122.5C 79.5084,121.916 86.5084,121.249 93.5,120.5 Z"/></g>
<g><path style="opacity:1" fill="#df8480" d="M 113.5,124.5 C 116.5,124.5 119.5,124.5 122.5,124.5C 121.147,126.738 119.147,128.071 116.5,128.5C 115.833,128.5 115.167,128.5 114.5,128.5C 113.432,127.566 112.099,127.232 110.5,127.5C 111.694,126.728 112.694,125.728 113.5,124.5 Z"/></g>
<g><path style="opacity:1" fill="#52676e" d="M 125.5,122.5 C 126.5,122.833 127.167,123.5 127.5,124.5C 127.5,124.833 127.5,125.167 127.5,125.5C 126.5,125.833 125.833,126.5 125.5,127.5C 122.083,130.255 118.417,132.588 114.5,134.5C 115.942,133.18 116.608,131.514 116.5,129.5C 116.5,129.167 116.5,128.833 116.5,128.5C 119.147,128.071 121.147,126.738 122.5,124.5C 123.29,123.599 124.29,122.932 125.5,122.5 Z"/></g>
<g><path style="opacity:1" fill="#dc6741" d="M 92.5,123.5 C 93.8333,123.5 95.1667,123.5 96.5,123.5C 97.1667,123.5 97.8333,123.5 98.5,123.5C 98.5,123.833 98.5,124.167 98.5,124.5C 88.3462,127.094 78.0129,128.927 67.5,130C 69.7226,130.566 71.7226,131.4 73.5,132.5C 69.8333,131.833 66.1667,131.167 62.5,130.5C 63.5274,128.806 64.8608,127.473 66.5,126.5C 71.3279,127.499 75.9946,127.499 80.5,126.5C 84.7653,126.434 88.7653,125.434 92.5,123.5 Z"/></g>
<g><path style="opacity:1" fill="#84605d" d="M 133.5,116.5 C 136.084,117.048 137.084,118.715 136.5,121.5C 136.818,126.032 136.485,130.366 135.5,134.5C 135.821,128.974 135.488,123.64 134.5,118.5C 134.167,117.833 133.833,117.167 133.5,116.5 Z"/></g>
<g><path style="opacity:1" fill="#8c9d1a" d="M 36.5,110.5 C 37.1667,110.5 37.8333,110.5 38.5,110.5C 38.5,111.167 38.8333,111.5 39.5,111.5C 40.4576,115.379 41.7909,119.045 43.5,122.5C 43.838,124.854 44.338,127.187 45,129.5C 47.8988,132.631 49.7321,136.298 50.5,140.5C 50.1788,142.048 49.1788,142.715 47.5,142.5C 44.5042,136.848 41.8375,131.182 39.5,125.5C 38.9694,120.382 37.9694,115.382 36.5,110.5 Z"/></g>
<g><path style="opacity:1" fill="#e85544" d="M 98.5,124.5 C 103.5,124.5 108.5,124.5 113.5,124.5C 112.694,125.728 111.694,126.728 110.5,127.5C 105.463,127.908 100.463,128.574 95.5,129.5C 90.6398,130.133 85.9731,131.133 81.5,132.5C 78.8333,132.5 76.1667,132.5 73.5,132.5C 71.7226,131.4 69.7226,130.566 67.5,130C 78.0129,128.927 88.3462,127.094 98.5,124.5 Z"/></g>
<g><path style="opacity:1" fill="#d5b6be" d="M 110.5,127.5 C 112.099,127.232 113.432,127.566 114.5,128.5C 109.172,130.979 103.505,132.646 97.5,133.5C 94.6146,133.806 91.9479,133.473 89.5,132.5C 91.6287,131.797 93.6287,130.797 95.5,129.5C 100.463,128.574 105.463,127.908 110.5,127.5 Z"/></g>
<g><path style="opacity:1" fill="#cd8484" d="M 95.5,129.5 C 93.6287,130.797 91.6287,131.797 89.5,132.5C 86.8333,132.5 84.1667,132.5 81.5,132.5C 85.9731,131.133 90.6398,130.133 95.5,129.5 Z"/></g>
<g><path style="opacity:1" fill="#f4f5f6" d="M 114.5,128.5 C 115.167,128.5 115.833,128.5 116.5,128.5C 116.5,128.833 116.5,129.167 116.5,129.5C 112.833,131.167 110.167,133.833 108.5,137.5C 100.162,141.347 91.4954,142.347 82.5,140.5C 80.7857,139.262 78.7857,138.595 76.5,138.5C 75.1736,136.805 75.5069,135.472 77.5,134.5C 84.2954,134.199 90.9621,133.865 97.5,133.5C 103.505,132.646 109.172,130.979 114.5,128.5 Z"/></g>
<g><path style="opacity:1" fill="#90868d" d="M 73.5,132.5 C 76.1667,132.5 78.8333,132.5 81.5,132.5C 84.1667,132.5 86.8333,132.5 89.5,132.5C 91.9479,133.473 94.6146,133.806 97.5,133.5C 90.9621,133.865 84.2954,134.199 77.5,134.5C 76.1667,133.833 74.8333,133.167 73.5,132.5 Z"/></g>
<g><path style="opacity:1" fill="#93a6ad" d="M 116.5,129.5 C 116.608,131.514 115.942,133.18 114.5,134.5C 113.833,134.5 113.5,134.833 113.5,135.5C 111.833,136.167 110.167,136.833 108.5,137.5C 110.167,133.833 112.833,131.167 116.5,129.5 Z"/></g>
<g><path style="opacity:1" fill="#9aba18" d="M 68.5,122.5 C 66.6363,124.218 64.3029,125.385 61.5,126C 63.1341,126.494 64.8008,126.66 66.5,126.5C 64.8608,127.473 63.5274,128.806 62.5,130.5C 61.2801,132.284 61.2801,133.95 62.5,135.5C 62.8816,139.978 63.8816,144.311 65.5,148.5C 66.6352,150.745 67.1352,153.078 67,155.5C 63.4066,150.638 60.0733,145.638 57,140.5C 56.0766,134.895 56.5766,129.561 58.5,124.5C 61.5046,122.701 64.838,122.034 68.5,122.5 Z"/></g>
<g><path style="opacity:1" fill="#5898a7" d="M 62.5,130.5 C 66.1667,131.167 69.8333,131.833 73.5,132.5C 74.8333,133.167 76.1667,133.833 77.5,134.5C 75.5069,135.472 75.1736,136.805 76.5,138.5C 71.6717,137.724 67.1717,136.057 63,133.5C 62.5357,134.094 62.369,134.761 62.5,135.5C 61.2801,133.95 61.2801,132.284 62.5,130.5 Z"/></g>
<g><path style="opacity:1" fill="#9e7469" d="M 125.5,127.5 C 122.273,134.727 117.273,140.394 110.5,144.5C 111.167,143.5 111.833,142.5 112.5,141.5C 113.833,140.833 114.833,139.833 115.5,138.5C 116.478,138.189 117.145,137.522 117.5,136.5C 116.311,135.571 114.978,135.238 113.5,135.5C 113.5,134.833 113.833,134.5 114.5,134.5C 118.417,132.588 122.083,130.255 125.5,127.5 Z"/></g>
<g><path style="opacity:1" fill="#a97456" d="M 54.5,144.5 C 53.7321,145.263 53.2321,146.263 53,147.5C 52.5604,145.134 52.0604,142.801 51.5,140.5C 51.1667,138.5 50.8333,136.5 50.5,134.5C 51.0424,131.35 52.2091,128.35 54,125.5C 55.593,131.778 55.7596,138.111 54.5,144.5 Z"/></g>
<g><path style="opacity:1" fill="#f8c7af" d="M 127.5,125.5 C 127.802,130.93 126.136,135.597 122.5,139.5C 115.732,143.753 109.066,148.253 102.5,153C 104.797,154.16 104.464,155.16 101.5,156C 96.5893,157.492 91.5893,157.826 86.5,157C 84.9069,156.051 83.5736,154.885 82.5,153.5C 86.0148,154.919 89.6814,155.586 93.5,155.5C 93.5,153.5 93.5,151.5 93.5,149.5C 96.2282,149.829 98.5615,149.163 100.5,147.5C 103.73,146.192 107.064,145.192 110.5,144.5C 117.273,140.394 122.273,134.727 125.5,127.5C 125.833,126.5 126.5,125.833 127.5,125.5 Z"/></g>
<g><path style="opacity:0.259" fill="#6c6964" d="M 39.5,125.5 C 41.8375,131.182 44.5042,136.848 47.5,142.5C 48.3128,145.989 50.3128,148.656 53.5,150.5C 56.1938,153.86 59.1938,156.86 62.5,159.5C 62.5,159.833 62.5,160.167 62.5,160.5C 48.8229,152.816 41.1562,141.149 39.5,125.5 Z"/></g>
<g><path style="opacity:1" fill="#deb3a3" d="M 76.5,138.5 C 78.7857,138.595 80.7857,139.262 82.5,140.5C 81.209,140.263 80.209,140.596 79.5,141.5C 78.1417,140.374 76.8084,140.374 75.5,141.5C 82.8448,147.083 91.1781,149.083 100.5,147.5C 98.5615,149.163 96.2282,149.829 93.5,149.5C 90.4816,149.665 87.4816,149.498 84.5,149C 81.2901,146.896 77.9568,145.063 74.5,143.5C 73.2867,143.747 72.62,144.414 72.5,145.5C 69.4823,144.145 68.149,141.812 68.5,138.5C 67.5,138.5 66.5,138.5 65.5,138.5C 65.461,141.089 66.461,143.089 68.5,144.5C 66.8958,145.287 66.2291,146.62 66.5,148.5C 66.1667,148.5 65.8333,148.5 65.5,148.5C 63.8816,144.311 62.8816,139.978 62.5,135.5C 62.369,134.761 62.5357,134.094 63,133.5C 67.1717,136.057 71.6717,137.724 76.5,138.5 Z"/></g>
<g><path style="opacity:1" fill="#dc9a8a" d="M 113.5,135.5 C 114.978,135.238 116.311,135.571 117.5,136.5C 117.145,137.522 116.478,138.189 115.5,138.5C 115.44,137.957 115.107,137.624 114.5,137.5C 105.23,141.568 95.5637,144.234 85.5,145.5C 83.2228,144.551 81.2228,143.218 79.5,141.5C 80.209,140.596 81.209,140.263 82.5,140.5C 91.4954,142.347 100.162,141.347 108.5,137.5C 110.167,136.833 111.833,136.167 113.5,135.5 Z"/></g>
<g><path style="opacity:1" fill="#fdc7b3" d="M 115.5,138.5 C 114.833,139.833 113.833,140.833 112.5,141.5C 107.328,143.276 101.994,144.776 96.5,146C 92.6425,146.81 88.9758,146.643 85.5,145.5C 95.5637,144.234 105.23,141.568 114.5,137.5C 115.107,137.624 115.44,137.957 115.5,138.5 Z"/></g>
<g><path style="opacity:1" fill="#907130" d="M 129.5,124.5 C 130.167,128.5 130.833,132.5 131.5,136.5C 131.285,138.179 131.952,139.179 133.5,139.5C 132.987,143.553 132.154,147.553 131,151.5C 130.817,148.635 130.317,145.969 129.5,143.5C 129.5,137.167 129.5,130.833 129.5,124.5 Z"/></g>
<g><path style="opacity:0.973" fill="#82741e" d="M 50.5,140.5 C 50.8333,140.5 51.1667,140.5 51.5,140.5C 52.0604,142.801 52.5604,145.134 53,147.5C 53.2321,146.263 53.7321,145.263 54.5,144.5C 55.1471,145.274 55.4805,146.274 55.5,147.5C 55.3601,149.03 54.6935,150.03 53.5,150.5C 50.3128,148.656 48.3128,145.989 47.5,142.5C 49.1788,142.715 50.1788,142.048 50.5,140.5 Z"/></g>
<g><path style="opacity:1" fill="#faaa82" d="M 127.5,124.5 C 128.167,124.5 128.833,124.5 129.5,124.5C 129.5,130.833 129.5,137.167 129.5,143.5C 129.5,144.5 129.5,145.5 129.5,146.5C 125.432,150.552 120.765,153.885 115.5,156.5C 115.29,159.386 115.123,162.386 115,165.5C 114.768,164.263 114.268,163.263 113.5,162.5C 112.962,160.883 112.629,159.216 112.5,157.5C 109.978,157.128 107.978,157.961 106.5,160C 103.5,160.667 100.5,160.667 97.5,160C 107.418,155.049 115.751,148.215 122.5,139.5C 126.136,135.597 127.802,130.93 127.5,125.5C 127.5,125.167 127.5,124.833 127.5,124.5 Z"/></g>
<g><path style="opacity:1" fill="#f4a06e" d="M 146.5,137.5 C 147.11,138.391 147.443,139.391 147.5,140.5C 146.586,143.728 146.253,147.061 146.5,150.5C 145.167,150.5 143.833,150.5 142.5,150.5C 142.97,153.346 142.137,155.679 140,157.5C 139.178,159.788 138.511,162.122 138,164.5C 136.446,166.927 135.279,166.927 134.5,164.5C 136.971,156.284 138.971,147.951 140.5,139.5C 142.099,139.768 143.432,139.434 144.5,138.5C 145.167,138.167 145.833,137.833 146.5,137.5 Z"/></g>
<g><path style="opacity:1" fill="#f1b397" d="M 72.5,145.5 C 74.9626,149.3 78.296,151.967 82.5,153.5C 83.5736,154.885 84.9069,156.051 86.5,157C 91.5893,157.826 96.5893,157.492 101.5,156C 104.464,155.16 104.797,154.16 102.5,153C 109.066,148.253 115.732,143.753 122.5,139.5C 115.751,148.215 107.418,155.049 97.5,160C 100.5,160.667 103.5,160.667 106.5,160C 107.978,157.961 109.978,157.128 112.5,157.5C 112.629,159.216 112.962,160.883 113.5,162.5C 109.72,160.928 107.72,162.262 107.5,166.5C 100.786,166.73 94.1195,167.397 87.5,168.5C 91.6546,167.129 95.9879,165.962 100.5,165C 99.5,164 98.5,163 97.5,162C 94.5,161.667 91.5,161.333 88.5,161C 86.293,158.295 83.6263,156.129 80.5,154.5C 79.3044,154.846 79.3044,155.346 80.5,156C 79.8333,156.667 79.1667,156.667 78.5,156C 76.0746,151.406 72.7412,147.572 68.5,144.5C 66.461,143.089 65.461,141.089 65.5,138.5C 66.5,138.5 67.5,138.5 68.5,138.5C 68.149,141.812 69.4823,144.145 72.5,145.5 Z"/></g>
<g><path style="opacity:1" fill="#fcddcd" d="M 93.5,149.5 C 93.5,151.5 93.5,153.5 93.5,155.5C 89.6814,155.586 86.0148,154.919 82.5,153.5C 78.296,151.967 74.9626,149.3 72.5,145.5C 72.62,144.414 73.2867,143.747 74.5,143.5C 77.9568,145.063 81.2901,146.896 84.5,149C 87.4816,149.498 90.4816,149.665 93.5,149.5 Z"/></g>
<g><path style="opacity:1" fill="#f6e2db" d="M 79.5,141.5 C 81.2228,143.218 83.2228,144.551 85.5,145.5C 88.9758,146.643 92.6425,146.81 96.5,146C 101.994,144.776 107.328,143.276 112.5,141.5C 111.833,142.5 111.167,143.5 110.5,144.5C 107.064,145.192 103.73,146.192 100.5,147.5C 91.1781,149.083 82.8448,147.083 75.5,141.5C 76.8084,140.374 78.1417,140.374 79.5,141.5 Z"/></g>
<g><path style="opacity:0.404" fill="#348a5d" d="M 148.5,142.5 C 152.707,148.103 155.374,154.436 156.5,161.5C 154.612,163.988 153.945,166.988 154.5,170.5C 154.737,171.791 154.404,172.791 153.5,173.5C 154.002,166.318 153.335,159.318 151.5,152.5C 150.955,150.407 150.122,148.407 149,146.5C 148.667,151.167 148.333,155.833 148,160.5C 147.329,161.252 146.496,161.586 145.5,161.5C 146.776,155.085 147.776,148.751 148.5,142.5 Z"/></g>
<g><path style="opacity:1" fill="#85673b" d="M 57.5,120.5 C 58.4916,120.328 59.1583,120.662 59.5,121.5C 58.8902,122.391 58.5569,123.391 58.5,124.5C 56.5766,129.561 56.0766,134.895 57,140.5C 60.0733,145.638 63.4066,150.638 67,155.5C 67.1352,153.078 66.6352,150.745 65.5,148.5C 65.8333,148.5 66.1667,148.5 66.5,148.5C 67.6534,150.807 68.8201,153.14 70,155.5C 70.8007,158.367 70.6341,161.034 69.5,163.5C 67.6597,161.331 65.3263,159.998 62.5,159.5C 59.1938,156.86 56.1938,153.86 53.5,150.5C 54.6935,150.03 55.3601,149.03 55.5,147.5C 55.4805,146.274 55.1471,145.274 54.5,144.5C 55.7596,138.111 55.593,131.778 54,125.5C 52.2091,128.35 51.0424,131.35 50.5,134.5C 48.5314,127.77 50.8647,123.104 57.5,120.5 Z"/></g>
<g><path style="opacity:0.933" fill="#602420" d="M 62.5,159.5 C 65.3263,159.998 67.6597,161.331 69.5,163.5C 69.5,163.833 69.5,164.167 69.5,164.5C 68.609,163.89 67.609,163.557 66.5,163.5C 65.609,162.89 64.609,162.557 63.5,162.5C 63.5,161.833 63.1667,161.5 62.5,161.5C 62.5,161.167 62.5,160.833 62.5,160.5C 62.5,160.167 62.5,159.833 62.5,159.5 Z"/></g>
<g><path style="opacity:1" fill="#fcd4bd" d="M 68.5,144.5 C 72.7412,147.572 76.0746,151.406 78.5,156C 79.1667,156.667 79.8333,156.667 80.5,156C 79.3044,155.346 79.3044,154.846 80.5,154.5C 83.6263,156.129 86.293,158.295 88.5,161C 91.5,161.333 94.5,161.667 97.5,162C 98.5,163 99.5,164 100.5,165C 95.9879,165.962 91.6546,167.129 87.5,168.5C 84.7146,170.095 81.7146,171.095 78.5,171.5C 75.7915,168.791 72.7915,166.458 69.5,164.5C 69.5,164.167 69.5,163.833 69.5,163.5C 70.6341,161.034 70.8007,158.367 70,155.5C 68.8201,153.14 67.6534,150.807 66.5,148.5C 66.2291,146.62 66.8958,145.287 68.5,144.5 Z"/></g>
<g><path style="opacity:1" fill="#f7b986" d="M 147.5,140.5 C 148.338,140.842 148.672,141.508 148.5,142.5C 147.776,148.751 146.776,155.085 145.5,161.5C 144.18,163.463 142.846,165.463 141.5,167.5C 138.851,169.14 136.184,170.807 133.5,172.5C 132.791,171.596 131.791,171.263 130.5,171.5C 131.596,168.968 132.929,166.635 134.5,164.5C 135.279,166.927 136.446,166.927 138,164.5C 138.511,162.122 139.178,159.788 140,157.5C 142.137,155.679 142.97,153.346 142.5,150.5C 143.833,150.5 145.167,150.5 146.5,150.5C 146.253,147.061 146.586,143.728 147.5,140.5 Z"/></g>
<g><path style="opacity:1" fill="#f9d6c1" d="M 129.5,146.5 C 129.174,149.311 128.341,151.978 127,154.5C 122.884,159.445 119.384,164.779 116.5,170.5C 115.383,175.713 114.049,175.713 112.5,170.5C 111.624,169.749 110.624,169.249 109.5,169C 110.609,167.187 109.942,166.354 107.5,166.5C 107.72,162.262 109.72,160.928 113.5,162.5C 114.268,163.263 114.768,164.263 115,165.5C 115.123,162.386 115.29,159.386 115.5,156.5C 120.765,153.885 125.432,150.552 129.5,146.5 Z"/></g>
<g><path style="opacity:1" fill="#4491a3" d="M 156.5,161.5 C 157.492,161.328 158.158,161.662 158.5,162.5C 157.504,162.414 156.671,162.748 156,163.5C 155.814,166.036 155.314,168.369 154.5,170.5C 153.945,166.988 154.612,163.988 156.5,161.5 Z"/></g>
<g><path style="opacity:1" fill="#2f7ad0" d="M 63.5,162.5 C 64.609,162.557 65.609,162.89 66.5,163.5C 67.3403,165.853 68.6736,167.853 70.5,169.5C 71.5,170.833 72.5,172.167 73.5,173.5C 68.0611,171.726 64.5611,173.726 63,179.5C 62.5054,183.173 63.672,186.173 66.5,188.5C 62.4629,187.796 60.1295,185.463 59.5,181.5C 58.5065,174.551 59.8398,168.218 63.5,162.5 Z"/></g>
<g><path style="opacity:1" fill="#86654b" d="M 134.5,118.5 C 135.488,123.64 135.821,128.974 135.5,134.5C 135.232,136.099 135.566,137.432 136.5,138.5C 136.56,139.043 136.893,139.376 137.5,139.5C 138.94,138.048 140.606,137.048 142.5,136.5C 141.34,138.203 142.007,138.869 144.5,138.5C 143.432,139.434 142.099,139.768 140.5,139.5C 138.971,147.951 136.971,156.284 134.5,164.5C 132.929,166.635 131.596,168.968 130.5,171.5C 127.643,173.758 124.643,175.758 121.5,177.5C 120.391,176.71 119.058,176.21 117.5,176C 120.078,173.652 119.745,171.819 116.5,170.5C 119.384,164.779 122.884,159.445 127,154.5C 128.341,151.978 129.174,149.311 129.5,146.5C 129.5,145.5 129.5,144.5 129.5,143.5C 130.317,145.969 130.817,148.635 131,151.5C 132.154,147.553 132.987,143.553 133.5,139.5C 134.462,132.588 134.795,125.588 134.5,118.5 Z"/></g>
<g><path style="opacity:1" fill="#892d2a" d="M 70.5,169.5 C 73.3943,170.882 75.8943,172.882 78,175.5C 78.4828,174.552 78.6495,173.552 78.5,172.5C 79.7709,174.109 80.7709,175.942 81.5,178C 80.9056,178.464 80.2389,178.631 79.5,178.5C 77.5,176.833 75.5,175.167 73.5,173.5C 72.5,172.167 71.5,170.833 70.5,169.5 Z"/></g>
<g><path style="opacity:1" fill="#c3231b" d="M 66.5,163.5 C 67.609,163.557 68.609,163.89 69.5,164.5C 72.7915,166.458 75.7915,168.791 78.5,171.5C 78.5,171.833 78.5,172.167 78.5,172.5C 78.6495,173.552 78.4828,174.552 78,175.5C 75.8943,172.882 73.3943,170.882 70.5,169.5C 68.6736,167.853 67.3403,165.853 66.5,163.5 Z"/></g>
<g><path style="opacity:0.525" fill="#3cb6e5" d="M 165.5,165.5 C 167.655,165.372 169.655,165.872 171.5,167C 173.729,169.4 176.063,171.567 178.5,173.5C 174.818,173.445 171.485,172.445 168.5,170.5C 167.248,168.999 166.248,167.332 165.5,165.5 Z"/></g>
<g><path style="opacity:1" fill="#0eb65a" d="M 151.5,152.5 C 153.335,159.318 154.002,166.318 153.5,173.5C 150.703,173.967 149.369,175.633 149.5,178.5C 149.5,178.833 149.5,179.167 149.5,179.5C 147.833,181.5 146.167,183.5 144.5,185.5C 143.5,185.5 142.5,185.5 141.5,185.5C 141.334,180.489 141.501,175.489 142,170.5C 143.25,169.427 144.584,169.427 146,170.5C 146.95,169.978 147.784,169.311 148.5,168.5C 148.866,162.771 149.866,157.437 151.5,152.5 Z"/></g>
<g><path style="opacity:1" fill="#8eb6a7" d="M 153.5,173.5 C 152.136,175.191 150.803,176.858 149.5,178.5C 149.369,175.633 150.703,173.967 153.5,173.5 Z"/></g>
<g><path style="opacity:1" fill="#0a5fd2" d="M 158.5,162.5 C 161.157,162.935 163.491,163.935 165.5,165.5C 166.248,167.332 167.248,168.999 168.5,170.5C 172.347,175.53 175.68,180.863 178.5,186.5C 178.866,188.905 179.533,191.238 180.5,193.5C 178.9,196.368 177.567,199.368 176.5,202.5C 174.5,202.833 172.5,203.167 170.5,203.5C 170.915,201.253 171.582,199.086 172.5,197C 172.139,194.551 171.472,192.218 170.5,190C 166.918,189.279 163.751,187.779 161,185.5C 160.127,185.735 159.293,186.069 158.5,186.5C 156.546,185.149 154.379,184.482 152,184.5C 149.49,184.977 147.324,185.977 145.5,187.5C 147.38,185.074 148.713,182.408 149.5,179.5C 149.5,179.167 149.5,178.833 149.5,178.5C 150.803,176.858 152.136,175.191 153.5,173.5C 154.404,172.791 154.737,171.791 154.5,170.5C 155.314,168.369 155.814,166.036 156,163.5C 156.671,162.748 157.504,162.414 158.5,162.5 Z"/></g>
<g><path style="opacity:1" fill="#0d9344" d="M 151.5,152.5 C 149.866,157.437 148.866,162.771 148.5,168.5C 147.784,169.311 146.95,169.978 146,170.5C 144.584,169.427 143.25,169.427 142,170.5C 141.501,175.489 141.334,180.489 141.5,185.5C 142.5,185.5 143.5,185.5 144.5,185.5C 144.167,186.167 143.833,186.833 143.5,187.5C 143.167,187.5 142.833,187.5 142.5,187.5C 136.776,184.193 134.609,179.193 136,172.5C 138.328,171.336 140.162,169.67 141.5,167.5C 142.846,165.463 144.18,163.463 145.5,161.5C 146.496,161.586 147.329,161.252 148,160.5C 148.333,155.833 148.667,151.167 149,146.5C 150.122,148.407 150.955,150.407 151.5,152.5 Z"/></g>
<g><path style="opacity:1" fill="#d02423" d="M 62.5,161.5 C 63.1667,161.5 63.5,161.833 63.5,162.5C 59.8398,168.218 58.5065,174.551 59.5,181.5C 57.5636,185.715 56.8969,190.381 57.5,195.5C 57.1667,195.5 56.8333,195.5 56.5,195.5C 56.8195,190.637 56.4861,185.97 55.5,181.5C 55.1667,181.5 54.8333,181.5 54.5,181.5C 54.9354,175.558 56.4354,169.891 59,164.5C 60.0391,163.29 61.2058,162.29 62.5,161.5 Z"/></g>
<g><path style="opacity:1" fill="#e8decf" d="M 130.5,171.5 C 131.791,171.263 132.791,171.596 133.5,172.5C 132.833,173.5 132.167,174.5 131.5,175.5C 127.164,177.332 123.164,179.665 119.5,182.5C 115.347,184.611 111.014,186.445 106.5,188C 102.642,188.81 98.9758,188.643 95.5,187.5C 105.296,186.929 113.963,183.595 121.5,177.5C 124.643,175.758 127.643,173.758 130.5,171.5 Z"/></g>
<g><path style="opacity:1" fill="#6e543d" d="M 107.5,166.5 C 109.942,166.354 110.609,167.187 109.5,169C 110.624,169.249 111.624,169.749 112.5,170.5C 114.049,175.713 115.383,175.713 116.5,170.5C 119.745,171.819 120.078,173.652 117.5,176C 119.058,176.21 120.391,176.71 121.5,177.5C 113.963,183.595 105.296,186.929 95.5,187.5C 92.1711,186.169 88.8377,184.836 85.5,183.5C 83.5,181.833 81.5,180.167 79.5,178.5C 80.2389,178.631 80.9056,178.464 81.5,178C 80.7709,175.942 79.7709,174.109 78.5,172.5C 78.5,172.167 78.5,171.833 78.5,171.5C 81.7146,171.095 84.7146,170.095 87.5,168.5C 94.1195,167.397 100.786,166.73 107.5,166.5 Z"/></g>
<g><path style="opacity:1" fill="#2f8cc6" d="M 131.5,175.5 C 133.308,176.918 133.975,178.918 133.5,181.5C 131.321,182.059 129.154,182.726 127,183.5C 125.107,182.655 123.274,182.988 121.5,184.5C 120.833,184.5 120.167,184.5 119.5,184.5C 119.5,183.833 119.5,183.167 119.5,182.5C 123.164,179.665 127.164,177.332 131.5,175.5 Z"/></g>
<g><path style="opacity:1" fill="#1a6441" d="M 141.5,167.5 C 140.162,169.67 138.328,171.336 136,172.5C 134.609,179.193 136.776,184.193 142.5,187.5C 140.882,189.316 138.882,190.649 136.5,191.5C 136.167,191.5 135.833,191.5 135.5,191.5C 139.845,187.867 139.178,185.867 133.5,185.5C 133.007,187.806 132.674,190.139 132.5,192.5C 132.167,192.5 131.833,192.5 131.5,192.5C 131.448,190.097 131.781,187.764 132.5,185.5C 133.234,184.292 133.567,182.959 133.5,181.5C 133.975,178.918 133.308,176.918 131.5,175.5C 132.167,174.5 132.833,173.5 133.5,172.5C 136.184,170.807 138.851,169.14 141.5,167.5 Z"/></g>
<g><path style="opacity:1" fill="#3ab3ec" d="M 133.5,181.5 C 133.567,182.959 133.234,184.292 132.5,185.5C 130.801,185.34 129.134,185.506 127.5,186C 122.314,190.088 116.98,193.921 111.5,197.5C 111.5,196.833 111.167,196.5 110.5,196.5C 115.527,193.804 119.194,189.804 121.5,184.5C 123.274,182.988 125.107,182.655 127,183.5C 129.154,182.726 131.321,182.059 133.5,181.5 Z"/></g>
<g><path style="opacity:1" fill="#088be9" d="M 182.5,197.5 C 181.925,199.411 180.925,201.078 179.5,202.5C 178.5,202.5 177.5,202.5 176.5,202.5C 177.567,199.368 178.9,196.368 180.5,193.5C 179.533,191.238 178.866,188.905 178.5,186.5C 179.239,186.631 179.906,186.464 180.5,186C 179.137,183.871 179.471,183.371 181.5,184.5C 182.492,188.783 182.826,193.116 182.5,197.5 Z"/></g>
<g><path style="opacity:1" fill="#305e86" d="M 149.5,179.5 C 148.713,182.408 147.38,185.074 145.5,187.5C 144.833,187.5 144.167,187.5 143.5,187.5C 143.833,186.833 144.167,186.167 144.5,185.5C 146.167,183.5 147.833,181.5 149.5,179.5 Z"/></g>
<g><path style="opacity:1" fill="#6a8190" d="M 119.5,182.5 C 119.5,183.167 119.5,183.833 119.5,184.5C 115.895,185.963 112.229,187.463 108.5,189C 101.093,190.309 94.0926,189.309 87.5,186C 86.6195,185.292 85.9528,184.458 85.5,183.5C 88.8377,184.836 92.1711,186.169 95.5,187.5C 98.9758,188.643 102.642,188.81 106.5,188C 111.014,186.445 115.347,184.611 119.5,182.5 Z"/></g>
<g><path style="opacity:1" fill="#129eec" d="M 168.5,170.5 C 171.485,172.445 174.818,173.445 178.5,173.5C 179.167,173.5 179.5,173.833 179.5,174.5C 179.662,176.824 180.828,178.491 183,179.5C 183.497,181.81 183.663,184.143 183.5,186.5C 187.329,186.657 189.663,188.657 190.5,192.5C 188.833,193.5 187.5,194.833 186.5,196.5C 185.264,197.246 183.93,197.579 182.5,197.5C 182.826,193.116 182.492,188.783 181.5,184.5C 179.471,183.371 179.137,183.871 180.5,186C 179.906,186.464 179.239,186.631 178.5,186.5C 175.68,180.863 172.347,175.53 168.5,170.5 Z"/></g>
<g><path style="opacity:1" fill="#109959" d="M 135.5,191.5 C 134.609,192.11 133.609,192.443 132.5,192.5C 132.674,190.139 133.007,187.806 133.5,185.5C 139.178,185.867 139.845,187.867 135.5,191.5 Z"/></g>
<g><path style="opacity:1" fill="#c1abbb" d="M 55.5,181.5 C 56.4861,185.97 56.8195,190.637 56.5,195.5C 55.0687,194.22 54.4021,192.553 54.5,190.5C 54.5079,187.455 54.8413,184.455 55.5,181.5 Z"/></g>
<g><path style="opacity:1" fill="#199cec" d="M 73.5,173.5 C 75.5,175.167 77.5,176.833 79.5,178.5C 81.5,180.167 83.5,181.833 85.5,183.5C 85.9528,184.458 86.6195,185.292 87.5,186C 94.0926,189.309 101.093,190.309 108.5,189C 112.229,187.463 115.895,185.963 119.5,184.5C 120.167,184.5 120.833,184.5 121.5,184.5C 119.194,189.804 115.527,193.804 110.5,196.5C 107.324,197.34 104.658,199.007 102.5,201.5C 101.5,201.5 100.5,201.5 99.5,201.5C 96.66,196.647 92.66,195.313 87.5,197.5C 83.0819,196.961 79.0819,195.295 75.5,192.5C 72.7318,190.921 69.7318,189.588 66.5,188.5C 63.672,186.173 62.5054,183.173 63,179.5C 64.5611,173.726 68.0611,171.726 73.5,173.5 Z"/></g>
<g><path style="opacity:0.663" fill="#3675c5" d="M 54.5,181.5 C 54.8333,181.5 55.1667,181.5 55.5,181.5C 54.8413,184.455 54.5079,187.455 54.5,190.5C 53.8423,189.602 53.1757,188.602 52.5,187.5C 48.63,189.27 45.2967,191.77 42.5,195C 40.6547,196.128 38.6547,196.628 36.5,196.5C 38.2726,195.108 40.2726,193.941 42.5,193C 45.7306,188.267 49.7306,184.434 54.5,181.5 Z"/></g>
<g><path style="opacity:1" fill="#fb1611" d="M 59.5,181.5 C 60.1295,185.463 62.4629,187.796 66.5,188.5C 69.7318,189.588 72.7318,190.921 75.5,192.5C 76.5648,198.805 77.5648,205.138 78.5,211.5C 80.1112,212.32 80.7778,213.654 80.5,215.5C 78.7839,215.371 77.1172,215.038 75.5,214.5C 73.9991,213.248 72.3325,212.248 70.5,211.5C 68.8577,210.197 67.1911,208.864 65.5,207.5C 65.1667,207.5 64.8333,207.5 64.5,207.5C 62.8327,204.176 60.6661,201.176 58,198.5C 57.5172,197.552 57.3505,196.552 57.5,195.5C 56.8969,190.381 57.5636,185.715 59.5,181.5 Z"/></g>
<g><path style="opacity:1" fill="#0458d3" d="M 170.5,203.5 C 167.446,205.355 164.112,206.688 160.5,207.5C 157.9,205.921 155.567,206.255 153.5,208.5C 154.641,209.425 154.641,210.259 153.5,211C 151.5,211.333 149.5,211.667 147.5,212C 145.905,214.102 143.905,215.602 141.5,216.5C 138.912,210.616 134.579,208.949 128.5,211.5C 126.307,209.478 125.307,206.811 125.5,203.5C 127.179,203.715 128.179,203.048 128.5,201.5C 130.412,199.343 132.079,197.009 133.5,194.5C 134.694,193.728 135.694,192.728 136.5,191.5C 138.882,190.649 140.882,189.316 142.5,187.5C 142.833,187.5 143.167,187.5 143.5,187.5C 144.167,187.5 144.833,187.5 145.5,187.5C 147.324,185.977 149.49,184.977 152,184.5C 154.379,184.482 156.546,185.149 158.5,186.5C 159.293,186.069 160.127,185.735 161,185.5C 163.751,187.779 166.918,189.279 170.5,190C 171.472,192.218 172.139,194.551 172.5,197C 171.582,199.086 170.915,201.253 170.5,203.5 Z"/></g>
<g><path style="opacity:1" fill="#ede8e9" d="M 90.5,197.5 C 94.3491,197.019 96.3491,198.686 96.5,202.5C 96.5654,202.938 96.3988,203.272 96,203.5C 95.7216,202.584 95.2216,201.918 94.5,201.5C 92.8333,200.5 91.5,199.167 90.5,197.5 Z"/></g>
<g><path style="opacity:1" fill="#d5effb" d="M 110.5,196.5 C 111.167,196.5 111.5,196.833 111.5,197.5C 109.611,198.604 107.945,199.937 106.5,201.5C 105.167,201.5 103.833,201.5 102.5,201.5C 104.658,199.007 107.324,197.34 110.5,196.5 Z"/></g>
<g><path style="opacity:1" fill="#1c85e1" d="M 132.5,185.5 C 131.781,187.764 131.448,190.097 131.5,192.5C 128.088,196.238 124.755,199.905 121.5,203.5C 120.518,206.962 120.185,210.629 120.5,214.5C 119.371,216.628 119.204,218.961 120,221.5C 120.816,220.177 121.983,219.511 123.5,219.5C 122.5,221.167 121.167,222.5 119.5,223.5C 117.742,223.877 116.075,224.544 114.5,225.5C 110.917,229.091 107.251,232.424 103.5,235.5C 105.785,231.79 108.452,228.29 111.5,225C 110.833,224.333 110.167,224.333 109.5,225C 105.928,228.815 102.595,232.815 99.5,237C 99.7284,237.399 100.062,237.565 100.5,237.5C 99.3285,238.345 97.9952,239.011 96.5,239.5C 99.3806,232.43 103.714,226.263 109.5,221C 111.479,220.316 113.146,220.816 114.5,222.5C 115.107,222.376 115.44,222.043 115.5,221.5C 116.725,220.848 117.392,219.681 117.5,218C 117.486,216.615 117.152,215.449 116.5,214.5C 114.975,210.635 112.642,207.302 109.5,204.5C 108.694,203.272 107.694,202.272 106.5,201.5C 107.945,199.937 109.611,198.604 111.5,197.5C 116.98,193.921 122.314,190.088 127.5,186C 129.134,185.506 130.801,185.34 132.5,185.5 Z"/></g>
<g><path style="opacity:1" fill="#60cff9" d="M 87.5,197.5 C 92.66,195.313 96.66,196.647 99.5,201.5C 98.609,202.11 97.609,202.443 96.5,202.5C 96.3491,198.686 94.3491,197.019 90.5,197.5C 89.5,197.5 88.5,197.5 87.5,197.5 Z"/></g>
<g><path style="opacity:1" fill="#b9c9df" d="M 133.5,194.5 C 132.079,197.009 130.412,199.343 128.5,201.5C 127.348,202.625 126.348,202.625 125.5,201.5C 127.569,198.427 130.236,196.094 133.5,194.5 Z"/></g>
<g><path style="opacity:0.478" fill="#62c3ee" d="M 179.5,174.5 C 181.352,175.089 183.185,175.756 185,176.5C 185.29,178.952 185.956,181.285 187,183.5C 189.742,187.974 192.742,192.307 196,196.5C 196.798,198.259 196.631,199.926 195.5,201.5C 190.939,202.621 189.606,205.288 191.5,209.5C 189.857,209.52 188.524,208.853 187.5,207.5C 185.729,208.035 185.396,208.869 186.5,210C 184.782,210.346 183.115,210.846 181.5,211.5C 180.117,208.924 179.283,209.258 179,212.5C 176.388,213.779 174.055,215.445 172,217.5C 170.682,220.605 168.848,223.438 166.5,226C 165.256,226.456 164.423,225.956 164,224.5C 163.29,225.973 162.124,226.64 160.5,226.5C 160.5,225.5 160.5,224.5 160.5,223.5C 162.135,222.185 163.801,222.185 165.5,223.5C 166.205,221.328 167.205,219.328 168.5,217.5C 166.42,216.472 166.086,215.138 167.5,213.5C 169.857,213.663 172.19,213.497 174.5,213C 173.448,211.284 174.114,210.284 176.5,210C 175.552,209.517 174.552,209.351 173.5,209.5C 173.433,206.234 175.099,204.734 178.5,205C 179.252,204.329 179.586,203.496 179.5,202.5C 180.925,201.078 181.925,199.411 182.5,197.5C 183.93,197.579 185.264,197.246 186.5,196.5C 187.5,194.833 188.833,193.5 190.5,192.5C 189.663,188.657 187.329,186.657 183.5,186.5C 183.663,184.143 183.497,181.81 183,179.5C 180.828,178.491 179.662,176.824 179.5,174.5 Z"/></g>
<g><path style="opacity:1" fill="#5764a6" d="M 56.5,195.5 C 56.8333,195.5 57.1667,195.5 57.5,195.5C 57.3505,196.552 57.5172,197.552 58,198.5C 60.6661,201.176 62.8327,204.176 64.5,207.5C 59.0726,205.396 56.4059,201.396 56.5,195.5 Z"/></g>
<g><path style="opacity:1" fill="#324759" d="M 135.5,191.5 C 135.833,191.5 136.167,191.5 136.5,191.5C 135.694,192.728 134.694,193.728 133.5,194.5C 130.236,196.094 127.569,198.427 125.5,201.5C 124.076,203.515 123.41,205.848 123.5,208.5C 121.787,207.365 121.12,205.698 121.5,203.5C 124.755,199.905 128.088,196.238 131.5,192.5C 131.833,192.5 132.167,192.5 132.5,192.5C 133.609,192.443 134.609,192.11 135.5,191.5 Z"/></g>
<g><path style="opacity:1" fill="#de5652" d="M 86.5,203.5 C 88.9517,203.014 91.6183,203.014 94.5,203.5C 93.7659,204.708 93.4326,206.041 93.5,207.5C 92.1127,209.877 91.2794,212.543 91,215.5C 89.3005,216.406 87.4672,216.739 85.5,216.5C 84.9231,211.919 85.9231,207.752 88.5,204C 87.9056,203.536 87.2389,203.369 86.5,203.5 Z"/></g>
<g><path style="opacity:1" fill="#9d5d5d" d="M 94.5,201.5 C 95.2216,201.918 95.7216,202.584 96,203.5C 96.3988,203.272 96.5654,202.938 96.5,202.5C 97.609,202.443 98.609,202.11 99.5,201.5C 100.5,201.5 101.5,201.5 102.5,201.5C 103.833,201.5 105.167,201.5 106.5,201.5C 107.694,202.272 108.694,203.272 109.5,204.5C 105.554,203.473 101.554,203.306 97.5,204C 96.1387,205.584 95.472,207.418 95.5,209.5C 94.1667,209.5 93.5,208.833 93.5,207.5C 93.4326,206.041 93.7659,204.708 94.5,203.5C 94.5,202.833 94.5,202.167 94.5,201.5 Z"/></g>
<g><path style="opacity:1" fill="#de4c49" d="M 109.5,204.5 C 112.642,207.302 114.975,210.635 116.5,214.5C 116.5,215.833 116.5,217.167 116.5,218.5C 114.167,218.5 111.833,218.5 109.5,218.5C 107.973,218.573 106.973,217.906 106.5,216.5C 105.952,214.606 104.952,212.94 103.5,211.5C 102.749,212.376 102.249,213.376 102,214.5C 100.84,202.518 100.007,202.518 99.5,214.5C 98.1667,214.5 96.8333,214.5 95.5,214.5C 95.5,212.833 95.5,211.167 95.5,209.5C 95.472,207.418 96.1387,205.584 97.5,204C 101.554,203.306 105.554,203.473 109.5,204.5 Z"/></g>
<g><path style="opacity:1" fill="#0b47a5" d="M 125.5,201.5 C 126.348,202.625 127.348,202.625 128.5,201.5C 128.179,203.048 127.179,203.715 125.5,203.5C 125.307,206.811 126.307,209.478 128.5,211.5C 128.5,212.167 128.833,212.5 129.5,212.5C 127.243,214.729 125.243,217.062 123.5,219.5C 121.983,219.511 120.816,220.177 120,221.5C 119.204,218.961 119.371,216.628 120.5,214.5C 120.351,215.552 120.517,216.552 121,217.5C 123.105,214.893 123.938,211.893 123.5,208.5C 123.41,205.848 124.076,203.515 125.5,201.5 Z"/></g>
<g><path style="opacity:1" fill="#2c4880" d="M 141.5,216.5 C 141.5,217.167 141.5,217.833 141.5,218.5C 140.833,218.833 140.167,219.167 139.5,219.5C 138.976,213.323 135.643,210.99 129.5,212.5C 128.833,212.5 128.5,212.167 128.5,211.5C 134.579,208.949 138.912,210.616 141.5,216.5 Z"/></g>
<g><path style="opacity:1" fill="#047de5" d="M 160.5,207.5 C 158.899,209.853 156.899,212.02 154.5,214C 149.888,214.87 145.554,216.37 141.5,218.5C 141.5,217.833 141.5,217.167 141.5,216.5C 143.905,215.602 145.905,214.102 147.5,212C 149.5,211.667 151.5,211.333 153.5,211C 154.641,210.259 154.641,209.425 153.5,208.5C 155.567,206.255 157.9,205.921 160.5,207.5 Z"/></g>
<g><path style="opacity:0.451" fill="#2695e2" d="M 36.5,196.5 C 29.4982,202.12 22.6649,208.12 16,214.5C 15.5683,215.6 16.0683,216.267 17.5,216.5C 19.2788,215.606 20.6121,214.273 21.5,212.5C 23.7267,214.229 24.7267,216.562 24.5,219.5C 21.1673,218.714 18.0007,219.381 15,221.5C 12.5154,219.334 12.0154,216.668 13.5,213.5C 19.9117,206.128 27.5784,200.462 36.5,196.5 Z"/></g>
<g><path style="opacity:1" fill="#035bd2" d="M 54.5,190.5 C 54.4021,192.553 55.0687,194.22 56.5,195.5C 56.4059,201.396 59.0726,205.396 64.5,207.5C 64.8333,207.5 65.1667,207.5 65.5,207.5C 65.5569,208.609 65.8902,209.609 66.5,210.5C 65.2101,211.058 64.3768,212.058 64,213.5C 62.1862,212.24 60.3529,212.24 58.5,213.5C 56.3501,215.149 54.3501,216.982 52.5,219C 46.1373,219.247 39.804,219.747 33.5,220.5C 31.0276,219.008 28.3609,218.342 25.5,218.5C 25.4208,217.07 25.7542,215.736 26.5,214.5C 25.5,213.833 24.5,213.167 23.5,212.5C 28.9728,208.86 34.3062,205.027 39.5,201C 38.5,200.333 37.5,200.333 36.5,201C 33.308,204.095 29.6413,206.428 25.5,208C 23.9586,209.371 22.6253,210.871 21.5,212.5C 20.6121,214.273 19.2788,215.606 17.5,216.5C 16.0683,216.267 15.5683,215.6 16,214.5C 22.6649,208.12 29.4982,202.12 36.5,196.5C 38.6547,196.628 40.6547,196.128 42.5,195C 45.2967,191.77 48.63,189.27 52.5,187.5C 53.1757,188.602 53.8423,189.602 54.5,190.5 Z"/></g>
<g><path style="opacity:1" fill="#0455ca" d="M 129.5,212.5 C 135.643,210.99 138.976,213.323 139.5,219.5C 138.091,221.417 136.424,223.25 134.5,225C 130.107,226.682 125.773,228.516 121.5,230.5C 120.476,231.852 119.476,233.185 118.5,234.5C 117.167,235.167 116.167,236.167 115.5,237.5C 114.325,237.281 113.325,237.614 112.5,238.5C 111.243,240.679 109.743,242.679 108,244.5C 107.764,242.881 106.931,241.881 105.5,241.5C 104.761,241.631 104.094,241.464 103.5,241C 108.75,234.925 114.083,229.091 119.5,223.5C 121.167,222.5 122.5,221.167 123.5,219.5C 125.243,217.062 127.243,214.729 129.5,212.5 Z"/></g>
<g><path style="opacity:1" fill="#dc5754" d="M 70.5,211.5 C 72.3325,212.248 73.9991,213.248 75.5,214.5C 73.7078,215.309 71.7078,215.809 69.5,216C 67.2657,217.75 64.9324,219.25 62.5,220.5C 65.1667,217.5 67.8333,214.5 70.5,211.5 Z"/></g>
<g><path style="opacity:1" fill="#bd5855" d="M 86.5,203.5 C 87.2389,203.369 87.9056,203.536 88.5,204C 85.9231,207.752 84.9231,211.919 85.5,216.5C 87.4672,216.739 89.3005,216.406 91,215.5C 91.2794,212.543 92.1127,209.877 93.5,207.5C 93.5,208.833 94.1667,209.5 95.5,209.5C 95.5,211.167 95.5,212.833 95.5,214.5C 96.8333,214.5 98.1667,214.5 99.5,214.5C 100.007,202.518 100.84,202.518 102,214.5C 102.249,213.376 102.749,212.376 103.5,211.5C 104.952,212.94 105.952,214.606 106.5,216.5C 105.504,216.414 104.671,216.748 104,217.5C 103.634,219.452 102.801,221.118 101.5,222.5C 100.5,223.167 99.5,223.833 98.5,224.5C 98.6633,222.143 98.4966,219.81 98,217.5C 95.7655,216.02 93.9321,216.353 92.5,218.5C 84.4753,219.803 81.642,216.469 84,208.5C 84.7568,206.685 85.5902,205.019 86.5,203.5 Z"/></g>
<g><path style="opacity:1" fill="#1e5190" d="M 121.5,203.5 C 121.12,205.698 121.787,207.365 123.5,208.5C 123.938,211.893 123.105,214.893 121,217.5C 120.517,216.552 120.351,215.552 120.5,214.5C 120.185,210.629 120.518,206.962 121.5,203.5 Z"/></g>
<g><path style="opacity:1" fill="#3a77ac" d="M 65.5,207.5 C 67.1911,208.864 68.8577,210.197 70.5,211.5C 67.8333,214.5 65.1667,217.5 62.5,220.5C 62.1667,220.5 61.8333,220.5 61.5,220.5C 61.5,219.167 60.8333,218.5 59.5,218.5C 61.6526,216.93 63.8192,215.263 66,213.5C 66.4828,212.552 66.6495,211.552 66.5,210.5C 65.8902,209.609 65.5569,208.609 65.5,207.5 Z"/></g>
<g><path style="opacity:1" fill="#fb3a39" d="M 75.5,192.5 C 79.0819,195.295 83.0819,196.961 87.5,197.5C 88.5,197.5 89.5,197.5 90.5,197.5C 91.5,199.167 92.8333,200.5 94.5,201.5C 94.5,202.167 94.5,202.833 94.5,203.5C 91.6183,203.014 88.9517,203.014 86.5,203.5C 85.5902,205.019 84.7568,206.685 84,208.5C 81.642,216.469 84.4753,219.803 92.5,218.5C 86.618,226.234 81.2846,234.4 76.5,243C 77.9544,244.713 79.7877,245.88 82,246.5C 87.1202,240.512 91.9535,234.512 96.5,228.5C 94.6113,233.389 92.278,238.055 89.5,242.5C 89.1667,243.167 88.8333,243.833 88.5,244.5C 86.7378,246.417 84.5712,247.75 82,248.5C 79.3492,246.836 76.5159,246.336 73.5,247C 72.7476,247.671 72.4142,248.504 72.5,249.5C 68.8333,249.5 65.1667,249.5 61.5,249.5C 60.791,248.596 59.791,248.263 58.5,248.5C 62.7124,246.597 66.8791,244.263 71,241.5C 71.3108,239.444 71.8108,237.444 72.5,235.5C 71.7769,233.836 72.1103,232.169 73.5,230.5C 73.3333,230.167 73.1667,229.833 73,229.5C 70.6667,231.167 68.3333,232.833 66,234.5C 65.5348,233.069 64.7014,231.903 63.5,231C 63.9574,230.586 64.2907,230.086 64.5,229.5C 63.846,227.885 63.346,226.218 63,224.5C 56.4856,229.817 52.319,236.484 50.5,244.5C 50.7867,246.443 51.7867,247.777 53.5,248.5C 53.5,248.833 53.5,249.167 53.5,249.5C 52.5,249.5 51.5,249.5 50.5,249.5C 50.0684,245.364 48.0684,243.697 44.5,244.5C 44.5,243.5 44.5,242.5 44.5,241.5C 47.7731,239.476 49.4398,236.476 49.5,232.5C 49.5,232.167 49.5,231.833 49.5,231.5C 51.5,230.167 53.1667,228.5 54.5,226.5C 56.8333,224.5 59.1667,222.5 61.5,220.5C 61.8333,220.5 62.1667,220.5 62.5,220.5C 64.9324,219.25 67.2657,217.75 69.5,216C 71.7078,215.809 73.7078,215.309 75.5,214.5C 77.1172,215.038 78.7839,215.371 80.5,215.5C 80.7778,213.654 80.1112,212.32 78.5,211.5C 77.5648,205.138 76.5648,198.805 75.5,192.5 Z"/></g>
<g><path style="opacity:1" fill="#27b1f5" d="M 167.5,213.5 C 166.086,215.138 166.42,216.472 168.5,217.5C 167.205,219.328 166.205,221.328 165.5,223.5C 163.801,222.185 162.135,222.185 160.5,223.5C 158.921,220.9 159.255,218.567 161.5,216.5C 160.443,216.094 159.109,216.094 157.5,216.5C 157.801,213.683 159.134,213.016 161.5,214.5C 163.48,213.516 165.147,212.183 166.5,210.5C 166.593,211.472 166.926,212.472 167.5,213.5 Z"/></g>
<g><path style="opacity:1" fill="#0782e5" d="M 66.5,210.5 C 66.6495,211.552 66.4828,212.552 66,213.5C 63.8192,215.263 61.6526,216.93 59.5,218.5C 57.8762,219.62 56.3762,220.953 55,222.5C 50.3279,220.579 46.4946,221.579 43.5,225.5C 41.1282,224.637 41.1282,223.471 43.5,222C 43.1667,221.833 42.8333,221.667 42.5,221.5C 40.0587,223.272 37.3921,224.606 34.5,225.5C 31.8908,224.77 29.2241,224.27 26.5,224C 29.2584,221.903 28.9251,220.403 25.5,219.5C 25.1667,219.5 24.8333,219.5 24.5,219.5C 24.7267,216.562 23.7267,214.229 21.5,212.5C 22.6253,210.871 23.9586,209.371 25.5,208C 29.6413,206.428 33.308,204.095 36.5,201C 37.5,200.333 38.5,200.333 39.5,201C 34.3062,205.027 28.9728,208.86 23.5,212.5C 24.5,213.167 25.5,213.833 26.5,214.5C 25.7542,215.736 25.4208,217.07 25.5,218.5C 28.3609,218.342 31.0276,219.008 33.5,220.5C 39.804,219.747 46.1373,219.247 52.5,219C 54.3501,216.982 56.3501,215.149 58.5,213.5C 60.3529,212.24 62.1862,212.24 64,213.5C 64.3768,212.058 65.2101,211.058 66.5,210.5 Z"/></g>
<g><path style="opacity:1" fill="#119ff1" d="M 176.5,202.5 C 177.5,202.5 178.5,202.5 179.5,202.5C 179.586,203.496 179.252,204.329 178.5,205C 175.099,204.734 173.433,206.234 173.5,209.5C 174.552,209.351 175.552,209.517 176.5,210C 174.114,210.284 173.448,211.284 174.5,213C 172.19,213.497 169.857,213.663 167.5,213.5C 166.926,212.472 166.593,211.472 166.5,210.5C 165.147,212.183 163.48,213.516 161.5,214.5C 159.134,213.016 157.801,213.683 157.5,216.5C 154.831,218.087 151.831,218.921 148.5,219C 147.944,219.383 147.611,219.883 147.5,220.5C 144.281,221.72 142.615,224.053 142.5,227.5C 141.641,230.24 141.308,232.907 141.5,235.5C 140.422,231.638 137.922,229.638 134,229.5C 128.743,230.863 123.576,232.53 118.5,234.5C 119.476,233.185 120.476,231.852 121.5,230.5C 125.773,228.516 130.107,226.682 134.5,225C 136.424,223.25 138.091,221.417 139.5,219.5C 140.167,219.167 140.833,218.833 141.5,218.5C 145.554,216.37 149.888,214.87 154.5,214C 156.899,212.02 158.899,209.853 160.5,207.5C 164.112,206.688 167.446,205.355 170.5,203.5C 172.5,203.167 174.5,202.833 176.5,202.5 Z"/></g>
<g><path style="opacity:1" fill="#edecee" d="M 106.5,216.5 C 106.973,217.906 107.973,218.573 109.5,218.5C 109.5,218.833 109.5,219.167 109.5,219.5C 106.833,220.5 104.167,221.5 101.5,222.5C 102.801,221.118 103.634,219.452 104,217.5C 104.671,216.748 105.504,216.414 106.5,216.5 Z"/></g>
<g><path style="opacity:1" fill="#543952" d="M 116.5,214.5 C 117.152,215.449 117.486,216.615 117.5,218C 117.392,219.681 116.725,220.848 115.5,221.5C 113.886,219.925 111.886,219.259 109.5,219.5C 109.5,219.167 109.5,218.833 109.5,218.5C 111.833,218.5 114.167,218.5 116.5,218.5C 116.5,217.167 116.5,215.833 116.5,214.5 Z"/></g>
<g><path style="opacity:1" fill="#8dbde3" d="M 109.5,219.5 C 111.886,219.259 113.886,219.925 115.5,221.5C 115.44,222.043 115.107,222.376 114.5,222.5C 113.146,220.816 111.479,220.316 109.5,221C 103.714,226.263 99.3806,232.43 96.5,239.5C 96.1667,240.5 95.5,241.167 94.5,241.5C 92.7839,241.629 91.1172,241.962 89.5,242.5C 92.278,238.055 94.6113,233.389 96.5,228.5C 97.3446,227.329 98.0113,225.995 98.5,224.5C 99.5,223.833 100.5,223.167 101.5,222.5C 104.167,221.5 106.833,220.5 109.5,219.5 Z"/></g>
<g><path style="opacity:1" fill="#18a1ef" d="M 59.5,218.5 C 60.8333,218.5 61.5,219.167 61.5,220.5C 59.1667,222.5 56.8333,224.5 54.5,226.5C 52.4727,226.338 50.4727,226.505 48.5,227C 43.3752,230.88 37.7085,232.38 31.5,231.5C 32.6446,230.109 32.6446,228.776 31.5,227.5C 29.9291,228.309 28.2624,228.643 26.5,228.5C 26.5,227.5 26.5,226.5 26.5,225.5C 23.3751,225.135 20.3751,224.302 17.5,223C 19.0552,220.535 21.0552,220.035 23.5,221.5C 24.5223,221.145 25.189,220.478 25.5,219.5C 28.9251,220.403 29.2584,221.903 26.5,224C 29.2241,224.27 31.8908,224.77 34.5,225.5C 37.3921,224.606 40.0587,223.272 42.5,221.5C 42.8333,221.667 43.1667,221.833 43.5,222C 41.1282,223.471 41.1282,224.637 43.5,225.5C 46.4946,221.579 50.3279,220.579 55,222.5C 56.3762,220.953 57.8762,219.62 59.5,218.5 Z"/></g>
<g><path style="opacity:1" fill="#5fb1e2" d="M 103.5,235.5 C 102.5,236.167 101.5,236.833 100.5,237.5C 100.062,237.565 99.7284,237.399 99.5,237C 102.595,232.815 105.928,228.815 109.5,225C 110.167,224.333 110.833,224.333 111.5,225C 108.452,228.29 105.785,231.79 103.5,235.5 Z"/></g>
<g><path style="opacity:1" fill="#ccebfa" d="M 147.5,220.5 C 148.559,222.07 148.059,223.403 146,224.5C 145.849,227.119 145.015,229.453 143.5,231.5C 142.571,230.311 142.238,228.978 142.5,227.5C 142.615,224.053 144.281,221.72 147.5,220.5 Z"/></g>
<g><path style="opacity:0.082" fill="#8fceeb" d="M 147.5,228.5 C 152.378,227.404 152.712,228.404 148.5,231.5C 147.614,230.675 147.281,229.675 147.5,228.5 Z"/></g>
<g><path style="opacity:0.278" fill="#5fc1ef" d="M 13.5,213.5 C 12.0154,216.668 12.5154,219.334 15,221.5C 18.0007,219.381 21.1673,218.714 24.5,219.5C 24.8333,219.5 25.1667,219.5 25.5,219.5C 25.189,220.478 24.5223,221.145 23.5,221.5C 21.0552,220.035 19.0552,220.535 17.5,223C 20.3751,224.302 23.3751,225.135 26.5,225.5C 26.5,226.5 26.5,227.5 26.5,228.5C 28.2624,228.643 29.9291,228.309 31.5,227.5C 32.6446,228.776 32.6446,230.109 31.5,231.5C 37.7085,232.38 43.3752,230.88 48.5,227C 50.4727,226.505 52.4727,226.338 54.5,226.5C 53.1667,228.5 51.5,230.167 49.5,231.5C 44.3285,232.994 39.1618,234.661 34,236.5C 31.2332,235.402 29.0666,233.568 27.5,231C 23.3428,228.52 19.6762,229.02 16.5,232.5C 15.1126,229.595 14.2793,226.595 14,223.5C 10.0748,224.63 6.40817,226.296 3,228.5C 1.38506,227.344 1.38506,226.011 3,224.5C 5.37836,221.622 8.21169,219.289 11.5,217.5C 11.9943,215.974 12.661,214.641 13.5,213.5 Z"/></g>
<g><path style="opacity:0.227" fill="#4a3c45" d="M 49.5,232.5 C 49.4398,236.476 47.7731,239.476 44.5,241.5C 45.5778,238.598 46.2444,235.598 46.5,232.5C 47.5,232.5 48.5,232.5 49.5,232.5 Z"/></g>
<g><path style="opacity:1" fill="#55c2f3" d="M 160.5,223.5 C 159.198,224.807 157.865,224.807 156.5,223.5C 155.126,224.711 153.626,225.711 152,226.5C 150.714,225.65 150.881,224.483 152.5,223C 150.126,223.885 148.459,225.718 147.5,228.5C 145.139,230.203 145.139,231.87 147.5,233.5C 146.754,234.736 146.421,236.07 146.5,237.5C 141.967,236.356 137.301,235.689 132.5,235.5C 130.473,235.338 128.473,235.505 126.5,236C 123.216,238.475 119.549,240.141 115.5,241C 120.287,240.957 124.621,242.123 128.5,244.5C 125.557,244.647 122.724,245.313 120,246.5C 117.447,246.137 115.28,245.137 113.5,243.5C 113.704,241.315 114.37,239.315 115.5,237.5C 116.167,236.167 117.167,235.167 118.5,234.5C 123.576,232.53 128.743,230.863 134,229.5C 137.922,229.638 140.422,231.638 141.5,235.5C 141.308,232.907 141.641,230.24 142.5,227.5C 142.238,228.978 142.571,230.311 143.5,231.5C 145.015,229.453 145.849,227.119 146,224.5C 148.059,223.403 148.559,222.07 147.5,220.5C 147.611,219.883 147.944,219.383 148.5,219C 151.831,218.921 154.831,218.087 157.5,216.5C 159.109,216.094 160.443,216.094 161.5,216.5C 159.255,218.567 158.921,220.9 160.5,223.5 Z"/></g>
<g><path style="opacity:1" fill="#fd2d29" d="M 98.5,224.5 C 98.0113,225.995 97.3446,227.329 96.5,228.5C 91.9535,234.512 87.1202,240.512 82,246.5C 79.7877,245.88 77.9544,244.713 76.5,243C 81.2846,234.4 86.618,226.234 92.5,218.5C 93.9321,216.353 95.7655,216.02 98,217.5C 98.4966,219.81 98.6633,222.143 98.5,224.5 Z"/></g>
<g><path style="opacity:1" fill="#fe2a28" d="M 58.5,248.5 C 56.8333,248.5 55.1667,248.5 53.5,248.5C 51.7867,247.777 50.7867,246.443 50.5,244.5C 52.319,236.484 56.4856,229.817 63,224.5C 63.346,226.218 63.846,227.885 64.5,229.5C 64.2907,230.086 63.9574,230.586 63.5,231C 64.7014,231.903 65.5348,233.069 66,234.5C 68.3333,232.833 70.6667,231.167 73,229.5C 73.1667,229.833 73.3333,230.167 73.5,230.5C 72.1103,232.169 71.7769,233.836 72.5,235.5C 71.8108,237.444 71.3108,239.444 71,241.5C 66.8791,244.263 62.7124,246.597 58.5,248.5 Z"/></g>
<g><path style="opacity:1" fill="#77d3f4" d="M 132.5,235.5 C 132.791,236.649 133.624,237.316 135,237.5C 137.888,237.977 140.721,238.644 143.5,239.5C 144.386,240.325 144.719,241.325 144.5,242.5C 139.139,242.667 134.139,244 129.5,246.5C 128.702,246.043 128.369,245.376 128.5,244.5C 124.621,242.123 120.287,240.957 115.5,241C 119.549,240.141 123.216,238.475 126.5,236C 128.473,235.505 130.473,235.338 132.5,235.5 Z"/></g>
<g><path style="opacity:0.267" fill="#746368" d="M 44.5,241.5 C 44.5,242.5 44.5,243.5 44.5,244.5C 43.5729,246.476 42.2395,246.809 40.5,245.5C 41.5213,243.812 42.8546,242.479 44.5,241.5 Z"/></g>
<g><path style="opacity:1" fill="#4794d2" d="M 94.5,241.5 C 94.7128,244.451 94.0461,247.118 92.5,249.5C 91.8333,249.5 91.1667,249.5 90.5,249.5C 90.5106,247.983 91.1772,246.816 92.5,246C 91.1807,245.805 89.8474,245.972 88.5,246.5C 88.5,245.833 88.5,245.167 88.5,244.5C 88.8333,243.833 89.1667,243.167 89.5,242.5C 91.1172,241.962 92.7839,241.629 94.5,241.5 Z"/></g>
<g><path style="opacity:1" fill="#0971dd" d="M 119.5,223.5 C 114.083,229.091 108.75,234.925 103.5,241C 104.094,241.464 104.761,241.631 105.5,241.5C 105.296,243.685 104.63,245.685 103.5,247.5C 101.958,248.301 100.292,248.634 98.5,248.5C 98.719,247.325 98.3857,246.325 97.5,245.5C 95.8888,246.32 95.2222,247.654 95.5,249.5C 94.5,249.5 93.5,249.5 92.5,249.5C 94.0461,247.118 94.7128,244.451 94.5,241.5C 95.5,241.167 96.1667,240.5 96.5,239.5C 97.9952,239.011 99.3285,238.345 100.5,237.5C 101.5,236.833 102.5,236.167 103.5,235.5C 107.251,232.424 110.917,229.091 114.5,225.5C 116.075,224.544 117.742,223.877 119.5,223.5 Z"/></g>
<g><path style="opacity:0.345" fill="#3595d8" d="M 115.5,237.5 C 114.37,239.315 113.704,241.315 113.5,243.5C 112.067,244.833 110.733,246.333 109.5,248C 107.633,248.711 106.133,248.211 105,246.5C 104.617,247.056 104.117,247.389 103.5,247.5C 104.63,245.685 105.296,243.685 105.5,241.5C 106.931,241.881 107.764,242.881 108,244.5C 109.743,242.679 111.243,240.679 112.5,238.5C 113.325,237.614 114.325,237.281 115.5,237.5 Z"/></g>
<g><path style="opacity:0.439" fill="#f96664" d="M 88.5,244.5 C 88.5,245.167 88.5,245.833 88.5,246.5C 88.2178,247.778 87.5511,248.778 86.5,249.5C 83.8333,249.5 81.1667,249.5 78.5,249.5C 77.1667,246.833 75.8333,246.833 74.5,249.5C 73.8333,249.5 73.1667,249.5 72.5,249.5C 72.4142,248.504 72.7476,247.671 73.5,247C 76.5159,246.336 79.3492,246.836 82,248.5C 84.5712,247.75 86.7378,246.417 88.5,244.5 Z"/></g>
<g><path style="opacity:0.133" fill="#3d97e8" d="M 103.5,247.5 C 103.5,248.167 103.5,248.833 103.5,249.5C 100.833,249.5 98.1667,249.5 95.5,249.5C 95.2222,247.654 95.8888,246.32 97.5,245.5C 98.3857,246.325 98.719,247.325 98.5,248.5C 100.292,248.634 101.958,248.301 103.5,247.5 Z"/></g>
</svg>
